<svg version="1.1" xmlns="http://www.w3.org/2000/svg" xmlns:xlink="http://www.w3.org/1999/xlink" width="257.57697" height="304.04055" viewBox="0,0,257.57697,304.04055"><g transform="translate(-110.05216,-26.01082)"><g data-paper-data="{&quot;isPaintingLayer&quot;:true}" fill-rule="nonzero" stroke-linejoin="miter" stroke-miterlimit="10" stroke-dasharray="" stroke-dashoffset="0" style="mix-blend-mode: normal"><path d="M340.88997,208.64171l-14.21908,-62.97937l14.64636,-3.30676l14.21908,62.97937z" fill="#000000" stroke="#ff0000" stroke-width="2" stroke-linecap="butt"/><path d="M195.95346,106.17432l-54.05406,33.03303l-28.52852,4.5045l64.56457,-55.55555z" data-paper-data="{&quot;index&quot;:null}" fill="#000000" stroke="#ff0000" stroke-width="2" stroke-linecap="round"/><path d="M297.56006,96.66982l64.56456,55.55556l-28.52852,-4.50451l-54.05406,-33.03303z" fill="#000000" stroke="#ff0000" stroke-width="2" stroke-linecap="round"/><path d="M317.57507,71.63979l-43.75804,69.06907l-39.38224,37.53754l-35.00644,-33.03303l-35.00644,-70.57057l72.20077,34.53454z" fill="#000000" stroke="#ff0000" stroke-width="2" stroke-linecap="round"/><path d="M217.45863,164.54933l21.70697,-3.21585l53.06149,68.33677l0.80397,17.68716l-20.09905,19.29509l-21.70698,-2.41188l16.8832,-30.55056l-32.15848,-45.82583l-8.84358,48.23772l-18.49112,24.11886l-23.3149,-3.21585z" fill="#000000" stroke="#ff0000" stroke-width="2" stroke-linecap="round"/><path d="M224.14963,309.38729l26.62047,-45.10522l12.7265,2.03697l22.52829,-12.24007l-30.65793,55.73395l31.43624,17.77941l-50.98507,-11.46176z" fill="#000000" stroke="#ff0000" stroke-width="2" stroke-linecap="round"/><path d="M166.5316,303.35104l23.20145,-46.95554l12.84254,1.08737l21.55831,-13.87739l-26.43939,57.85447l32.66842,15.39864l-51.69479,-7.64835z" fill="#000000" stroke="#ff0000" stroke-width="2" stroke-linecap="round"/><path d="M290.05256,72.64579l-30.03003,69.06907l-27.02702,37.53754l-24.02402,-33.03304l-24.02402,-70.57057l49.54955,34.53453z" fill="#000000" stroke="#ff0000" stroke-width="2" stroke-linecap="round"/><path d="M366.62913,212.28543c0,9.95107 -8.40307,18.01802 -18.76877,18.01802c-10.3657,0 -18.76877,-8.06695 -18.76877,-18.01802c0,-9.95108 8.40306,-18.01801 18.76877,-18.01801c10.3657,0 18.76877,8.06694 18.76877,18.01801z" fill="#000000" stroke="#ff0000" stroke-width="2" stroke-linecap="butt"/><path d="M182.05478,138.13884l-62.44039,16.42502l-3.81977,-14.52102l62.44039,-16.42502z" fill="#000000" stroke="#ff0000" stroke-width="2" stroke-linecap="butt"/><path d="M180.90272,103.24487c9.2227,-2.42604 18.66587,3.08374 21.09191,12.30644c2.42604,9.2227 -3.08373,18.66587 -12.30643,21.09191c-9.2227,2.42604 -18.66587,-3.08373 -21.09191,-12.30643c-2.42604,-9.2227 3.08374,-18.66587 12.30644,-21.09191z" fill="#000000" stroke="#ff0000" stroke-width="2" stroke-linecap="butt"/><path d="M325.26786,169.51147l38.41658,58.9145l-10.13742,1.82921l-39.99627,-60.849l-2.48144,27.8221l-43.90198,-60.8841l32.16612,15.65149l-96.36168,-118.0045l49.54282,36.931l-12.06547,-38.5145l76.41646,114.9448l-2.58727,-26.9075l43.15568,64.718z" fill="#000000" stroke="#ff0000" stroke-width="2" stroke-linecap="round"/><path d="M211.97448,110.72826v-73.57357h45.04505v73.57357z" fill="#000000" stroke="#ff0000" stroke-width="2" stroke-linecap="butt"/><path d="M230.4955,59.67721c0,-1.38071 1.11929,-2.5 2.5,-2.5c1.38071,0 2.5,1.11929 2.5,2.5c0,1.38071 -1.11929,2.5 -2.5,2.5c-1.38071,0 -2.5,-1.11929 -2.5,-2.5z" fill="#ff0000" stroke="none" stroke-width="0.5" stroke-linecap="butt"/><path d="M239.50451,61.17871c0,-1.38071 1.11929,-2.5 2.5,-2.5c1.38071,0 2.5,1.11929 2.5,2.5c0,1.38071 -1.11929,2.5 -2.5,2.5c-1.38071,0 -2.5,-1.11929 -2.5,-2.5z" fill="#ff0000" stroke="none" stroke-width="0.5" stroke-linecap="butt"/><path d="M248.51352,59.67721c0,-1.38071 1.11929,-2.5 2.5,-2.5c1.38071,0 2.5,1.11929 2.5,2.5c0,1.38071 -1.11929,2.5 -2.5,2.5c-1.38071,0 -2.5,-1.11929 -2.5,-2.5z" fill="#ff0000" stroke="none" stroke-width="0.5" stroke-linecap="butt"/><path d="M228.994,68.68622c0,-1.38071 1.11929,-2.5 2.5,-2.5c1.38071,0 2.5,1.11929 2.5,2.5c0,1.38071 -1.11929,2.5 -2.5,2.5c-1.38071,0 -2.5,-1.11929 -2.5,-2.5z" fill="#ff0000" stroke="none" stroke-width="0.5" stroke-linecap="butt"/><path d="M241.00601,71.68922c0,-1.38071 1.11929,-2.5 2.5,-2.5c1.38071,0 2.5,1.11929 2.5,2.5c0,1.38071 -1.11929,2.5 -2.5,2.5c-1.38071,0 -2.5,-1.11929 -2.5,-2.5z" fill="#ff0000" stroke="none" stroke-width="0.5" stroke-linecap="butt"/><path d="M250.01502,68.68622c0,-1.38071 1.11929,-2.5 2.5,-2.5c1.38071,0 2.5,1.11929 2.5,2.5c0,1.38071 -1.11929,2.5 -2.5,2.5c-1.38071,0 -2.5,-1.11929 -2.5,-2.5z" fill="#ff0000" stroke="none" stroke-width="0.5" stroke-linecap="butt"/><path d="M219.48199,139.25679v-27.02703h38.03803v27.02703z" fill="#000000" stroke="#000000" stroke-width="2" stroke-linecap="butt"/><path d="M248.51102,114.68677l3.003,7.67813l-30.03003,4.29975l29.02903,5.22113l-2.002,6.14251l-3.00301,-3.37838l-21.02102,-0.30712z" fill="none" stroke="#ff0000" stroke-width="2" stroke-linecap="round"/><path d="M273.53604,181.29883l19.51952,-19.51952l-21.02103,-3.003l30.03003,18.01801l-9.00901,15.01502z" fill="none" stroke="#ff0000" stroke-width="2" stroke-linecap="round"/><path d="M165.42793,163.28082h25.52552l-7.5075,27.02703l13.51351,-4.50451l6.00601,-16.51651l-21.02103,21.02102" fill="none" stroke="#ff0000" stroke-width="2" stroke-linecap="round"/><path d="M180.44295,155.77331l-3.00301,-22.52252l-6.00601,7.50751l16.51652,9.00901" fill="none" stroke="#ff0000" stroke-width="2" stroke-linecap="round"/><path d="M273.53606,190.30783l28.52852,15.01501l4.5045,-13.51351l4.5045,37.53754l-12.01201,21.02102l3.003,-24.02402l-9.00901,-16.51651z" fill="none" stroke="#ff0000" stroke-width="2" stroke-linecap="round"/></g></g></svg>