<svg version="1.1" xmlns="http://www.w3.org/2000/svg" xmlns:xlink="http://www.w3.org/1999/xlink" width="184" height="224" viewBox="0,0,184,224"><g transform="translate(-46.69442,-37.43402)"><g data-paper-data="{&quot;isPaintingLayer&quot;:true}" fill-rule="nonzero" stroke-linejoin="miter" stroke-miterlimit="10" stroke-dasharray="" stroke-dashoffset="0" style="mix-blend-mode: normal"><path d="M46.69443,261.43402v-224h184v224z" fill="#000000" stroke="none" stroke-width="0" stroke-linecap="butt"/><text transform="translate(106.69443,105.43402) scale(0.5,0.5)" font-size="40" xml:space="preserve" fill="#ff0000" fill-rule="nonzero" stroke="none" stroke-width="1" stroke-linecap="butt" stroke-linejoin="miter" stroke-miterlimit="10" stroke-dasharray="" stroke-dashoffset="0" font-family="Sans Serif" font-weight="normal" text-anchor="start" style="mix-blend-mode: normal"><tspan x="0" dy="0">magic</tspan></text><path d="M172.26331,142.15385c0,12.07837 -8.90132,21.86982 -19.88166,21.86982c-10.98034,0 -19.88166,-9.79145 -19.88166,-21.86982c0,-12.07837 8.90132,-21.86982 19.88166,-21.86982c10.98034,0 19.88166,9.79145 19.88166,21.86982z" fill="#ff0000" stroke="#ff0000" stroke-width="2" stroke-linecap="butt"/><path d="M190.18639,208.78698c0,12.07837 -8.90133,21.86983 -19.88166,21.86983c-10.98033,0 -19.88165,-9.79146 -19.88165,-21.86983c0,-12.07837 8.90132,-21.86982 19.88165,-21.86982c10.98033,0 19.88166,9.79145 19.88166,21.86982z" fill="#ff0000" stroke="#ff0000" stroke-width="2" stroke-linecap="butt"/><path d="M111.68343,187.94083c0,12.07837 -8.90133,21.86983 -19.88166,21.86983c-10.98033,0 -19.88165,-9.79146 -19.88165,-21.86983c0,-12.07837 8.90132,-21.86982 19.88165,-21.86982c10.98033,0 19.88166,9.79145 19.88166,21.86982z" fill="#ff0000" stroke="#ff0000" stroke-width="2" stroke-linecap="butt"/><path d="M136.78286,165.06848l-87.47009,-43.83875" fill="#ff0000" stroke="#ff0000" stroke-width="3" stroke-linecap="round"/></g></g></svg>