<svg version="1.1" xmlns="http://www.w3.org/2000/svg" xmlns:xlink="http://www.w3.org/1999/xlink" width="263" height="283.5298" viewBox="0,0,263,283.5298"><g transform="translate(-135.69444,-38.43402)"><g data-paper-data="{&quot;isPaintingLayer&quot;:true}" fill-rule="nonzero" stroke-linejoin="miter" stroke-miterlimit="10" stroke-dasharray="" stroke-dashoffset="0" style="mix-blend-mode: normal"><path d="M135.69444,303.43402v-265h263v265z" fill="none" stroke="none" stroke-width="2" stroke-linecap="butt"/><path d="M228.69444,298.43402v-59l23,-52l5,55l11,56" fill="none" stroke="#ff0000" stroke-width="2" stroke-linecap="round"/><path d="M251.69444,188.43402l5,-56l12,-33" data-paper-data="{&quot;index&quot;:null}" fill="none" stroke="#ff0000" stroke-width="2" stroke-linecap="round"/><path d="M268.69444,175.43402l-34,-5" data-paper-data="{&quot;index&quot;:null}" fill="none" stroke="#ff0000" stroke-width="2" stroke-linecap="round"/><path d="M233.69444,147.43402l42,9" data-paper-data="{&quot;index&quot;:null}" fill="none" stroke="#ff0000" stroke-width="2" stroke-linecap="round"/><path d="M228.69444,128.43402l56,10" data-paper-data="{&quot;index&quot;:null}" fill="none" stroke="#ff0000" stroke-width="2" stroke-linecap="round"/><path d="M291.69444,118.43402l-51,-10" data-paper-data="{&quot;index&quot;:null}" fill="none" stroke="#ff0000" stroke-width="2" stroke-linecap="round"/><path d="M233.69444,93.43402l70,12" data-paper-data="{&quot;index&quot;:null}" fill="none" stroke="#ff0000" stroke-width="2" stroke-linecap="round"/><path d="M151.93173,89.57346l49.56678,0.5941l43.76728,4.94226" fill="none" stroke="#ff0000" stroke-width="2" stroke-linecap="round"/><path d="M302.3035,104.58818l42.13297,51.71858l2.82595,29.29188" fill="none" stroke="#ff0000" stroke-width="2" stroke-linecap="round"/><path d="M355.06688,122.89832l-13.83656,62.07247l-9.06938,46.93344l-11.63646,52.16888l-6.84005,37.71225l1.60457,-40.27933l7.87014,-13.71353" fill="none" stroke="#ff0000" stroke-width="2" stroke-linecap="round"/><path d="M248.69444,95.43402l2,-48l44,6l-7,49" fill="none" stroke="#ff0000" stroke-width="2" stroke-linecap="round"/><path d="M273.69444,75.43402l5,-19" fill="none" stroke="#ff0000" stroke-width="2" stroke-linecap="round"/><path d="M263.69444,92.68402c-1.25,0 -1.25,-1.25 -1.25,-1.25c0,-3 0,-7 0,-10c0,0 0,-1.25 1.25,-1.25c1.25,0 1.25,1.25 1.25,1.25c0,3 0,6 0,9v1c0,0 0,1.25 -1.25,1.25z" fill="#ff0000" stroke="none" stroke-width="0.5" stroke-linecap="butt"/><path d="M271.69444,93.68402c-1.25,0 -1.25,-1.25 -1.25,-1.25c0,-3.33333 0,-7.66667 0,-11c0,0 0,-1.25 1.25,-1.25c1.25,0 1.25,1.25 1.25,1.25c0,3.33333 0,6.66667 0,10v1c0,0 0,1.25 -1.25,1.25z" fill="#ff0000" stroke="none" stroke-width="0.5" stroke-linecap="butt"/><path d="M278.69444,93.68402c-1.25,0 -1.25,-1.25 -1.25,-1.25c0,-3.33333 0,-7.66667 0,-11c0,0 0,-1.25 1.25,-1.25c1.25,0 1.25,1.25 1.25,1.25c0,3.33333 0,6.66667 0,10v1c0,0 0,1.25 -1.25,1.25z" fill="#ff0000" stroke="none" stroke-width="0.5" stroke-linecap="butt"/><path d="M283.44444,94.43402c0,-0.89107 0.63521,-1.14694 1,-1.22041c0,-4.25986 0,-8.51973 0,-12.77959c0,0 0,-1.25 1.25,-1.25c1.25,0 1.25,1.25 1.25,1.25c0,4.66667 0,9.33333 0,14l-2.25,1.25c0,0 -1.25,0 -1.25,-1.25z" fill="#ff0000" stroke="none" stroke-width="0.5" stroke-linecap="butt"/><path d="M263.23803,56.22197l-4.08714,19.42409" fill="none" stroke="#ff0000" stroke-width="2" stroke-linecap="round"/></g></g></svg>