<svg version="1.1" xmlns="http://www.w3.org/2000/svg" xmlns:xlink="http://www.w3.org/1999/xlink" width="555.01047" height="294.89669" viewBox="0,0,555.01047,294.89669"><g transform="translate(184.88284,-32.78118)"><g data-paper-data="{&quot;isPaintingLayer&quot;:true}" fill-rule="nonzero" stroke-linejoin="miter" stroke-miterlimit="10" stroke-dasharray="" stroke-dashoffset="0" style="mix-blend-mode: normal"><path d="M351.47312,207.20026l-10.54927,-63.69692l14.81324,-2.45332l10.54927,63.69692z" fill="#000000" stroke="#ff0000" stroke-width="2" stroke-linecap="butt"/><path d="M194.50101,131.73944l-62.84355,-7.98187l-25.08892,-14.30781l85.12217,-3.0362z" data-paper-data="{&quot;index&quot;:null}" fill="#000000" stroke="#ff0000" stroke-width="2" stroke-linecap="round"/><path d="M296.90986,95.20972l69.59361,49.10939l-28.82898,-1.74853l-56.97214,-27.69833z" fill="#000000" stroke="#ff0000" stroke-width="2" stroke-linecap="round"/><path d="M319.07656,69.26627l-43.75804,69.06907l-39.38224,37.53754l-35.00644,-33.03303l-35.00644,-70.57057l72.20077,34.53454z" fill="#000000" stroke="#ff0000" stroke-width="2" stroke-linecap="round"/><path d="M218.96012,162.17583l21.70697,-3.21585l53.06149,68.33677l0.80397,17.68716l-20.09905,19.29509l-21.70698,-2.41188l16.8832,-30.55056l-32.15848,-45.82583l-8.84358,48.23772l-18.49112,24.11886l-23.3149,-3.21585z" fill="#000000" stroke="#ff0000" stroke-width="2" stroke-linecap="round"/><path d="M5.73803,97.62879l69.11174,13.05068l-5.69642,8.58278l-71.60136,-13.2495l18.36308,21.04815l-74.33004,-10.45485l33.56037,-12.38268l-151.86687,-12.12811l60.94618,-10.19566l-36.14902,-17.94968l135.85338,24.40579l-21.21129,-16.75675l76.5806,13.64714z" fill="#000000" stroke="#ff0000" stroke-width="2" stroke-linecap="round"/><path d="M225.65113,307.01379l26.62047,-45.10522l12.7265,2.03697l22.52829,-12.24007l-30.65793,55.73395l31.43624,17.77941l-50.98507,-11.46176z" fill="#000000" stroke="#ff0000" stroke-width="2" stroke-linecap="round"/><path d="M172.33034,306.08502l16.07924,-49.84565l12.86339,-0.80396l19.29508,-16.88321l-17.68717,61.10111l34.57037,10.45151h-52.25752z" fill="#000000" stroke="#ff0000" stroke-width="2" stroke-linecap="round"/><path d="M291.55404,70.27227l-30.03003,69.06907l-27.02702,37.53754l-24.02402,-33.03304l-24.02402,-70.57057l49.54955,34.53453z" fill="#000000" stroke="#ff0000" stroke-width="2" stroke-linecap="round"/><path d="M369.12763,218.91193c0,9.95107 -8.40307,18.01802 -18.76877,18.01802c-10.3657,0 -18.76877,-8.06695 -18.76877,-18.01802c0,-9.95108 8.40306,-18.01801 18.76877,-18.01801c10.3657,0 18.76877,8.06694 18.76877,18.01801z" fill="#000000" stroke="#ff0000" stroke-width="2" stroke-linecap="butt"/><path d="M75.92691,107.87045l64.51674,2.48448l-0.57779,15.00389l-64.51674,-2.48448z" fill="#000000" stroke="#ff0000" stroke-width="2" stroke-linecap="butt"/><path d="M82.42792,114.65967c0,9.53645 -7.73082,17.26726 -17.26727,17.26726c-9.53645,0 -17.26726,-7.73082 -17.26726,-17.26726c0,-9.53645 7.73081,-17.26727 17.26726,-17.26727c9.53645,0 17.26727,7.73082 17.26727,17.26727z" fill="#000000" stroke="#ff0000" stroke-width="2" stroke-linecap="butt"/><path d="M213.47597,107.35476v-73.57357h45.04505v73.57357z" fill="#000000" stroke="#ff0000" stroke-width="2" stroke-linecap="butt"/><path d="M217.37199,56.42871c0,-1.38071 1.11929,-2.5 2.5,-2.5c1.38071,0 2.5,1.11929 2.5,2.5c0,1.38071 -1.11929,2.5 -2.5,2.5c-1.38071,0 -2.5,-1.11929 -2.5,-2.5z" fill="#ff0000" stroke="none" stroke-width="0.5" stroke-linecap="butt"/><path d="M225.25601,56.05521c0,-1.38071 1.11929,-2.5 2.5,-2.5c1.38071,0 2.5,1.11929 2.5,2.5c0,1.38071 -1.11929,2.5 -2.5,2.5c-1.38071,0 -2.5,-1.11929 -2.5,-2.5z" fill="#ff0000" stroke="none" stroke-width="0.5" stroke-linecap="butt"/><path d="M233.51501,56.17871c0,-1.38071 1.11929,-2.5 2.5,-2.5c1.38071,0 2.5,1.11929 2.5,2.5c0,1.38071 -1.11929,2.5 -2.5,2.5c-1.38071,0 -2.5,-1.11929 -2.5,-2.5z" fill="#ff0000" stroke="none" stroke-width="0.5" stroke-linecap="butt"/><path d="M219.37049,66.1877c0,-1.38071 1.11929,-2.5 2.5,-2.5c1.38071,0 2.5,1.11929 2.5,2.5c0,1.38071 -1.11929,2.5 -2.5,2.5c-1.38071,0 -2.5,-1.11929 -2.5,-2.5z" fill="#ff0000" stroke="none" stroke-width="0.5" stroke-linecap="butt"/><path d="M228.2575,66.6907c0,-1.38071 1.11929,-2.5 2.5,-2.5c1.38071,0 2.5,1.11929 2.5,2.5c0,1.38071 -1.11929,2.5 -2.5,2.5c-1.38071,0 -2.5,-1.11929 -2.5,-2.5z" fill="#ff0000" stroke="none" stroke-width="0.5" stroke-linecap="butt"/><path d="M235.39151,67.1877c0,-1.38071 1.11929,-2.5 2.5,-2.5c1.38071,0 2.5,1.11929 2.5,2.5c0,1.38071 -1.11929,2.5 -2.5,2.5c-1.38071,0 -2.5,-1.11929 -2.5,-2.5z" fill="#ff0000" stroke="none" stroke-width="0.5" stroke-linecap="butt"/><path d="M220.98347,136.88329v-27.02703h38.03804v27.02703z" fill="#000000" stroke="#000000" stroke-width="2" stroke-linecap="butt"/><path d="M250.0125,112.31327l3.003,7.67813l-30.03003,4.29975l29.02903,5.22113l-2.002,6.14251l-3.003,-3.37838l-21.02102,-0.30713z" fill="none" stroke="#ff0000" stroke-width="2" stroke-linecap="round"/><path d="M275.03754,178.92533l19.51952,-19.51952l-21.02102,-3.003l30.03003,18.01802l-9.00901,15.01502z" fill="none" stroke="#ff0000" stroke-width="2" stroke-linecap="round"/><path d="M166.92942,160.90731h25.52553l-7.50751,27.02703l13.51351,-4.5045l6.00601,-16.51652l-21.02102,21.02102" fill="none" stroke="#ff0000" stroke-width="2" stroke-linecap="round"/><path d="M181.94444,153.3998l-3.003,-22.52252l-6.00601,7.50751l16.51652,9.00901" fill="none" stroke="#ff0000" stroke-width="2" stroke-linecap="round"/><path d="M275.03755,187.93433l28.52853,15.01502l4.5045,-13.51351l4.5045,37.53754l-12.01201,21.02102l3.003,-24.02402l-9.00901,-16.51652z" fill="none" stroke="#ff0000" stroke-width="2" stroke-linecap="round"/></g></g></svg>