<svg version="1.1" xmlns="http://www.w3.org/2000/svg" xmlns:xlink="http://www.w3.org/1999/xlink" width="380.55275" height="313.88712" viewBox="0,0,380.55275,313.88712"><g transform="translate(-52.156,-23.66876)"><g data-paper-data="{&quot;isPaintingLayer&quot;:true}" fill-rule="nonzero" stroke-linejoin="miter" stroke-miterlimit="10" stroke-dasharray="" stroke-dashoffset="0" style="mix-blend-mode: normal"><path d="M329.6256,216.14622l-14.21908,-62.97937l14.64637,-3.30677l14.21908,62.97937z" fill="#000000" stroke="#ff0000" stroke-width="2" stroke-linecap="butt"/><path d="M184.68909,113.67883l-54.05406,33.03303l-28.52852,4.5045l64.56457,-55.55555z" data-paper-data="{&quot;index&quot;:null}" fill="#000000" stroke="#ff0000" stroke-width="2" stroke-linecap="round"/><path d="M286.29569,104.17433l64.56456,55.55556l-28.52852,-4.50451l-54.05406,-33.03303z" fill="#000000" stroke="#ff0000" stroke-width="2" stroke-linecap="round"/><path d="M306.3107,79.1443l-43.75804,69.06907l-39.38224,37.53754l-35.00644,-33.03303l-35.00644,-70.57057l72.20077,34.53454z" fill="#000000" stroke="#ff0000" stroke-width="2" stroke-linecap="round"/><path d="M206.19426,172.05384l21.70697,-3.21585l53.06149,68.33677l0.80397,17.68716l-20.09905,19.29509l-21.70698,-2.41188l16.8832,-30.55056l-32.15848,-45.82583l-8.84358,48.23772l-18.49112,24.11886l-23.3149,-3.21585z" fill="#000000" stroke="#ff0000" stroke-width="2" stroke-linecap="round"/><path d="M212.88526,316.8918l26.62047,-45.10522l12.7265,2.03697l22.52829,-12.24007l-30.65793,55.73395l31.43624,17.77941l-50.98507,-11.46176z" fill="#000000" stroke="#ff0000" stroke-width="2" stroke-linecap="round"/><path d="M155.26723,310.85555l23.20145,-46.95555l12.84255,1.08737l21.55831,-13.87739l-26.43939,57.85447l32.66842,15.39864l-51.69479,-7.64835z" fill="#000000" stroke="#ff0000" stroke-width="2" stroke-linecap="round"/><path d="M278.78819,80.1503l-30.03003,69.06907l-27.02702,37.53754l-24.02402,-33.03304l-24.02402,-70.57057l49.54955,34.53453z" fill="#000000" stroke="#ff0000" stroke-width="2" stroke-linecap="round"/><path d="M355.36477,219.78994c0,9.95107 -8.40307,18.01802 -18.76877,18.01802c-10.3657,0 -18.76877,-8.06695 -18.76877,-18.01802c0,-9.95108 8.40307,-18.01801 18.76877,-18.01801c10.3657,0 18.76877,8.06694 18.76877,18.01801z" fill="#000000" stroke="#ff0000" stroke-width="2" stroke-linecap="butt"/><path d="M82.60102,108.23614l54.9419,33.91121l-7.88633,12.77719l-54.9419,-33.91121z" fill="#000000" stroke="#ff0000" stroke-width="2" stroke-linecap="butt"/><path d="M66.03476,95.73435c9.2227,-2.42604 18.66587,3.08374 21.09191,12.30644c2.42604,9.2227 -3.08373,18.66587 -12.30643,21.09191c-9.2227,2.42604 -18.66587,-3.08374 -21.09191,-12.30644c-2.42604,-9.2227 3.08374,-18.66587 12.30644,-21.09191z" fill="#000000" stroke="#ff0000" stroke-width="2" stroke-linecap="butt"/><path d="M305.4547,193.47003l-38.02269,-59.16947l10.1494,-1.76154l39.58945,61.11447l2.66699,-27.80493l43.49484,61.17562l-32.06099,-15.86573l95.5723,118.64472l-49.29534,-37.26068l11.80826,38.59413l-75.64794,-115.45203l2.40771,26.92417l-42.72297,-65.00446z" fill="#000000" stroke="#ff0000" stroke-width="2" stroke-linecap="round"/><path d="M194.55162,95.69964l20.02324,-70.79647l43.34478,12.25913l-20.02324,70.79647z" fill="#000000" stroke="#ff0000" stroke-width="2" stroke-linecap="butt"/><path d="M219.23113,67.18172c0,-1.38071 1.11929,-2.5 2.5,-2.5c1.38071,0 2.5,1.11929 2.5,2.5c0,1.38071 -1.11929,2.5 -2.5,2.5c-1.38071,0 -2.5,-1.11929 -2.5,-2.5z" fill="#ff0000" stroke="none" stroke-width="0.5" stroke-linecap="butt"/><path d="M228.24014,68.68321c0,-1.38071 1.11929,-2.5 2.5,-2.5c1.38071,0 2.5,1.11929 2.5,2.5c0,1.38071 -1.11929,2.5 -2.5,2.5c-1.38071,0 -2.5,-1.11929 -2.5,-2.5z" fill="#ff0000" stroke="none" stroke-width="0.5" stroke-linecap="butt"/><path d="M237.24915,67.18172c0,-1.38071 1.11929,-2.5 2.5,-2.5c1.38071,0 2.5,1.11929 2.5,2.5c0,1.38071 -1.11929,2.5 -2.5,2.5c-1.38071,0 -2.5,-1.11929 -2.5,-2.5z" fill="#ff0000" stroke="none" stroke-width="0.5" stroke-linecap="butt"/><path d="M217.72963,76.19073c0,-1.38071 1.11929,-2.5 2.5,-2.5c1.38071,0 2.5,1.11929 2.5,2.5c0,1.38071 -1.11929,2.5 -2.5,2.5c-1.38071,0 -2.5,-1.11929 -2.5,-2.5z" fill="#ff0000" stroke="none" stroke-width="0.5" stroke-linecap="butt"/><path d="M229.74164,79.19373c0,-1.38071 1.11929,-2.5 2.5,-2.5c1.38071,0 2.5,1.11929 2.5,2.5c0,1.38071 -1.11929,2.5 -2.5,2.5c-1.38071,0 -2.5,-1.11929 -2.5,-2.5z" fill="#ff0000" stroke="none" stroke-width="0.5" stroke-linecap="butt"/><path d="M238.75065,76.19073c0,-1.38071 1.11929,-2.5 2.5,-2.5c1.38071,0 2.5,1.11929 2.5,2.5c0,1.38071 -1.11929,2.5 -2.5,2.5c-1.38071,0 -2.5,-1.11929 -2.5,-2.5z" fill="#ff0000" stroke="none" stroke-width="0.5" stroke-linecap="butt"/><path d="M208.21762,146.7613v-27.02703h38.03803v27.02703z" fill="#000000" stroke="#000000" stroke-width="2" stroke-linecap="butt"/><path d="M237.24665,122.19128l3.003,7.67813l-30.03003,4.29975l29.02903,5.22113l-2.002,6.14251l-3.00301,-3.37838l-21.02102,-0.30712z" fill="none" stroke="#ff0000" stroke-width="2" stroke-linecap="round"/><path d="M262.27167,188.80334l19.51952,-19.51952l-21.02103,-3.003l30.03003,18.01801l-9.00901,15.01502z" fill="none" stroke="#ff0000" stroke-width="2" stroke-linecap="round"/><path d="M154.16356,170.78533h25.52552l-7.5075,27.02703l13.51351,-4.50451l6.00601,-16.51651l-21.02103,21.02102" fill="none" stroke="#ff0000" stroke-width="2" stroke-linecap="round"/><path d="M169.17858,163.27782l-3.00301,-22.52252l-6.00601,7.50751l16.51652,9.00901" fill="none" stroke="#ff0000" stroke-width="2" stroke-linecap="round"/><path d="M262.27169,197.81234l28.52852,15.01501l4.5045,-13.51351l4.5045,37.53754l-12.01201,21.02102l3.003,-24.02402l-9.00901,-16.51651z" fill="none" stroke="#ff0000" stroke-width="2" stroke-linecap="round"/></g></g></svg>