<svg version="1.1" xmlns="http://www.w3.org/2000/svg" xmlns:xlink="http://www.w3.org/1999/xlink" width="242.49073" height="268.79887" viewBox="0,0,242.49073,268.79887"><g transform="translate(-177.93918,-54.89069)"><g data-paper-data="{&quot;isPaintingLayer&quot;:true}" fill-rule="nonzero" stroke-linejoin="miter" stroke-miterlimit="10" stroke-dasharray="" stroke-dashoffset="0" style="mix-blend-mode: normal"><path d="M236.24625,213.47596l7.50751,-82.58258l34.53453,52.55255l22.52253,3.00301" fill="none" stroke="#ff0000" stroke-width="2.5" stroke-linecap="round"/><path d="M239.24926,183.44594l-27.02703,-42.04204l33.03303,-13.51352" fill="none" stroke="#ff0000" stroke-width="2.5" stroke-linecap="round"/><path d="M228.56405,135.34855l-3.45594,-42.1625l-2.07357,-7.60307l7.60307,-5.52951l-1.38237,-4.14713l8.29426,-4.83832l2.76476,-10.36783l49.07438,-2.76475l-5.52951,3.45594l6.2207,6.22069l-4.83832,13.82377l11.05902,1.38238v53.22151h-40.78013z" fill="#ff0000" stroke="#ff0000" stroke-width="2" stroke-linecap="round"/><path d="M240.13159,96.9471c0,-4.77166 3.8682,-8.63986 8.63986,-8.63986c4.77166,0 8.63986,3.8682 8.63986,8.63986c0,4.77166 -3.8682,8.63986 -8.63986,8.63986c-4.77166,0 -8.63986,-3.8682 -8.63986,-8.63986z" fill="#000000" stroke="none" stroke-width="0.5" stroke-linecap="butt"/><path d="M275.41749,95.90928c0,-4.77166 3.8682,-8.63986 8.63986,-8.63986c4.77166,0 8.63986,3.8682 8.63986,8.63986c0,4.77166 -3.8682,8.63985 -8.63986,8.63985c-4.77166,0 -8.63986,-3.86819 -8.63986,-8.63985z" fill="#000000" stroke="none" stroke-width="0.5" stroke-linecap="butt"/><path d="M238.39324,133.27082l-1.03782,-19.71859" fill="none" stroke="#ff0000" stroke-width="2" stroke-linecap="round"/><text transform="translate(231.1285,137.16265) scale(0.3456,0.99775)" font-size="40" xml:space="preserve" fill="#000000" fill-rule="nonzero" stroke="none" stroke-width="1" stroke-linecap="butt" stroke-linejoin="miter" stroke-miterlimit="10" stroke-dasharray="" stroke-dashoffset="0" font-family="Sans Serif" font-weight="normal" text-anchor="start" style="mix-blend-mode: normal"><tspan x="0" dy="0">l   l   l   l   l</tspan></text><path d="M179.18918,302.06456l30.03003,-22.52252l27.02703,-70.57058l27.02703,63.06306l-1.5015,30.03003" fill="none" stroke="#ff0000" stroke-width="2.5" stroke-linecap="round"/><path d="M197.36032,322.43956l165.98731,-214.12439" fill="none" stroke="#ff0063" stroke-width="2.5" stroke-linecap="round"/><path d="M321.12796,108.05976l25.94084,-52.49931l72.69135,35.91808l-25.94084,52.49931z" fill="#ffffff" stroke="#000000" stroke-width="1" stroke-linecap="butt"/><path d="M364.19406,93.01239c0,-3.45178 2.79822,-6.25 6.25,-6.25c3.45178,0 6.25,2.79822 6.25,6.25c0,3.45178 -2.79822,6.25 -6.25,6.25c-3.45178,0 -6.25,-2.79822 -6.25,-6.25z" fill="#9966ff" stroke="none" stroke-width="0.5" stroke-linecap="butt"/><path d="M391.22109,103.5229c0,-3.45178 2.79822,-6.25 6.25,-6.25c3.45178,0 6.25,2.79822 6.25,6.25c0,3.45178 -2.79822,6.25 -6.25,6.25c-3.45178,0 -6.25,-2.79822 -6.25,-6.25z" fill="#66ffe5" stroke="none" stroke-width="0.5" stroke-linecap="butt"/><path d="M359.82392,99.36382c2.65758,1.39187 1.2657,4.04944 1.2657,4.04944l-2.01463,3.84244c-3.18464,5.14445 -6.12916,9.76993 -8.36802,15.39938c0,0 -1.11417,2.78543 -3.89961,1.67126c-2.78543,-1.11417 -1.67126,-3.8996 -1.67126,-3.8996c2.36459,-5.8805 5.396,-10.77063 8.72762,-16.14471l1.91075,-3.6525c0,0 1.39187,-2.65758 4.04944,-1.26571z" fill="#ff66e0" stroke="none" stroke-width="0.5" stroke-linecap="butt"/><path d="M379.45307,106.5289c3,0 3,3 3,3l-0.44804,4.5802c-1.14454,0.68187 -2.49754,1.09765 -3.43363,2.04563c-0.67725,0.68585 -0.60055,1.87249 -1.1891,2.63582c-1.06001,1.3748 -2.3077,2.62274 -3.6826,3.68259c-3.39326,2.61572 -7.0049,4.03342 -10.14332,7.19511c0,0 -2.12132,2.12132 -4.24264,0c-2.12132,-2.12132 0,-4.24265 0,-4.24265c3.37747,-3.35583 7.13948,-5.12273 10.8777,-7.81991c1.90251,-1.37269 2.46729,-4.04593 4.13732,-5.6936c0.65129,-0.64257 1.71491,-0.63825 2.57237,-0.95738l-0.44805,-1.42581c0,0 0,-3 3,-3z" fill="#66aaff" stroke="none" stroke-width="0.5" stroke-linecap="butt"/><path d="M393.5864,108.90908c2.12132,2.12132 0,4.24264 0,4.24264l-0.93954,0.72182c-0.89833,1.79666 -2.3046,3.39873 -2.76654,5.35362c-0.23019,0.97417 0.25281,2.03445 0,3.003c-0.83159,3.18593 -3.70633,5.86667 -4.5045,9.00901c-0.43636,1.7179 0.08025,3.5443 0.08025,5.31675c0,0 0,3 -3,3c-3,0 -3,-3 -3,-3c0,-0.75319 -0.02175,-6.28305 0.08025,-6.69526c0.78776,-3.18343 3.76275,-5.8699 4.5045,-9.00901c0.23019,-0.97417 -0.25281,-2.03445 0,-3.003c0.1251,-0.47926 2.87112,-5.92169 3.23947,-6.65839l2.06346,-2.28118c0,0 2.12132,-2.12132 4.24264,0z" fill="#75ff66" stroke="none" stroke-width="0.5" stroke-linecap="butt"/><path d="M334.40803,115.53191c-3,0 -3,-3 -3,-3v-3.003c0.14827,-6.82172 4.79402,-13.29925 7.82423,-19.35966c0,0 1.34164,-2.68328 4.02492,-1.34164c2.68328,1.34164 1.34164,4.02492 1.34164,4.02492c-2.40795,4.81589 -7.37783,11.284 -7.19079,16.67638v3.003c0,0 0,3 -3,3z" fill="#fff566" stroke="none" stroke-width="0.5" stroke-linecap="butt"/></g></g></svg>