<svg version="1.1" xmlns="http://www.w3.org/2000/svg" xmlns:xlink="http://www.w3.org/1999/xlink" width="263" height="265" viewBox="0,0,263,265"><g transform="translate(-135.69443,-38.43402)"><g data-paper-data="{&quot;isPaintingLayer&quot;:true}" fill-rule="nonzero" stroke-linejoin="miter" stroke-miterlimit="10" stroke-dasharray="" stroke-dashoffset="0" style="mix-blend-mode: normal"><path d="M135.69443,303.43402v-265h263v265z" fill="none" stroke="none" stroke-width="2" stroke-linecap="butt"/><path d="M228.69443,298.43402v-59l23,-52l5,55l11,56" fill="none" stroke="#ff0000" stroke-width="2" stroke-linecap="round"/><path d="M251.69443,188.43402l5,-56l12,-33" data-paper-data="{&quot;index&quot;:null}" fill="none" stroke="#ff0000" stroke-width="2" stroke-linecap="round"/><path d="M234.69443,170.43402l34,5" data-paper-data="{&quot;index&quot;:null}" fill="none" stroke="#ff0000" stroke-width="2" stroke-linecap="round"/><path d="M233.69443,147.43402l42,9" data-paper-data="{&quot;index&quot;:null}" fill="none" stroke="#ff0000" stroke-width="2" stroke-linecap="round"/><path d="M228.69443,128.43402l56,10" data-paper-data="{&quot;index&quot;:null}" fill="none" stroke="#ff0000" stroke-width="2" stroke-linecap="round"/><path d="M291.69443,118.43402l-51,-10" data-paper-data="{&quot;index&quot;:null}" fill="none" stroke="#ff0000" stroke-width="2" stroke-linecap="round"/><path d="M303.69443,105.43402l-70,-12" data-paper-data="{&quot;index&quot;:null}" fill="none" stroke="#ff0000" stroke-width="2" stroke-linecap="round"/><path d="M234.98456,93.94587l-32.7347,2.39905l-25.91274,-34.37519" fill="none" stroke="#ff0000" stroke-width="2" stroke-linecap="round"/><path d="M304.69443,107.43402l27,61l-5,29" fill="none" stroke="#ff0000" stroke-width="2" stroke-linecap="round"/><path d="M392.69444,215.43403l-59.36236,-22.81561l-45.08911,-15.87364l-49.89007,-19.18283l-36.2961,-12.31231l39.60529,7.51134l12.40686,9.80152" fill="none" stroke="none" stroke-width="2" stroke-linecap="round"/><path d="M248.69443,95.43402l2,-48l44,6l-7,49" fill="none" stroke="#ff0000" stroke-width="2" stroke-linecap="round"/><path d="M263.69443,57.43402l-5,19" fill="none" stroke="#ff0000" stroke-width="2" stroke-linecap="round"/><path d="M263.69443,92.68402c-1.25,0 -1.25,-1.25 -1.25,-1.25c0,-3 0,-7 0,-10c0,0 0,-1.25 1.25,-1.25c1.25,0 1.25,1.25 1.25,1.25c0,3 0,6 0,9v1c0,0 0,1.25 -1.25,1.25z" fill="#ff0000" stroke="none" stroke-width="0.5" stroke-linecap="butt"/><path d="M271.69443,93.68402c-1.25,0 -1.25,-1.25 -1.25,-1.25c0,-3.33333 0,-7.66667 0,-11c0,0 0,-1.25 1.25,-1.25c1.25,0 1.25,1.25 1.25,1.25c0,3.33333 0,6.66667 0,10v1c0,0 0,1.25 -1.25,1.25z" fill="#ff0000" stroke="none" stroke-width="0.5" stroke-linecap="butt"/><path d="M278.69443,93.68402c-1.25,0 -1.25,-1.25 -1.25,-1.25c0,-3.33333 0,-7.66667 0,-11c0,0 0,-1.25 1.25,-1.25c1.25,0 1.25,1.25 1.25,1.25c0,3.33333 0,6.66667 0,10v1c0,0 0,1.25 -1.25,1.25z" fill="#ff0000" stroke="none" stroke-width="0.5" stroke-linecap="butt"/><path d="M283.44443,94.43402c0,-0.89107 0.63521,-1.14694 1,-1.22041c0,-4.25986 0,-8.51973 0,-12.77959c0,0 0,-1.25 1.25,-1.25c1.25,0 1.25,1.25 1.25,1.25c0,4.66667 0,9.33333 0,14l-2.25,1.25c0,0 -1.25,0 -1.25,-1.25z" fill="#ff0000" stroke="none" stroke-width="0.5" stroke-linecap="butt"/><path d="M277.23802,56.22197l-4.08714,19.42409" fill="none" stroke="#ff0000" stroke-width="2" stroke-linecap="round"/></g></g></svg>