<svg version="1.1" xmlns="http://www.w3.org/2000/svg" xmlns:xlink="http://www.w3.org/1999/xlink" width="509" height="386" viewBox="0,0,509,386"><g transform="translate(10.63736,12.69288)"><g data-paper-data="{&quot;isPaintingLayer&quot;:true}" fill-rule="nonzero" stroke-linejoin="miter" stroke-miterlimit="10" stroke-dasharray="" stroke-dashoffset="0" style="mix-blend-mode: normal"><path d="M-9.63736,372.30712v-384h507v384z" fill="#000000" stroke="#000000" stroke-width="2" stroke-linecap="butt"/><path d="M290.55707,297.93403c0,2.36813 -13.06752,0.64248 -15.03143,2.75867c-6.48368,6.98643 -11.58807,35.29881 -29.13313,37.29478c-2.54821,0.28989 -9.31666,0.44654 -12.33543,0.44654c-23.43954,0 -32.42303,-26.56589 -40.11877,-34.37566c-2.18662,-2.21902 -7.38123,-3.61921 -7.38123,-6.12434c0,-4.65313 -11.87851,-12.94417 -4.93377,-16.38478c9.95296,-4.93098 36.70477,-4.11522 54.43378,-4.11522c22.97053,0 52.62194,-1.65461 60.64212,5.90959c2.48909,2.34758 -6.14212,11.90886 -6.14212,14.59041z" fill="none" stroke="#d20000" stroke-width="2" stroke-linecap="butt"/><path d="M175.55707,173.43405l-47,-52l-16,56l-2,-104l77,79z" fill="none" stroke="#ff0000" stroke-width="2" stroke-linecap="round"/><path d="M280.55707,153.43405l74,-84l44,124l-51,-76l-57,56z" fill="none" stroke="#ff0000" stroke-width="2" stroke-linecap="round"/><path d="M187.55707,155.43405l95,1l15,31l-2,96l-116,-1l-4,-104z" fill="#000000" stroke="#ff0000" stroke-width="2" stroke-linecap="round"/><path d="M204.14311,282.14608l1.78965,-52.00766l12.94327,-14.05247l15.00797,1.93931l12.07271,17.95132l1.18201,44.99559z" fill="#ff0000" stroke="#ff0000" stroke-width="2" stroke-linecap="round"/><path d="M190.30707,191.43405c0,-3.45178 2.79822,-6.25 6.25,-6.25c3.45178,0 6.25,2.79822 6.25,6.25c0,3.45178 -2.79822,6.25 -6.25,6.25c-3.45178,0 -6.25,-2.79822 -6.25,-6.25z" fill="#ff0000" stroke="none" stroke-width="0.5" stroke-linecap="butt"/><path d="M260.55707,172.43405l17,8l5,8" fill="none" stroke="#af0000" stroke-width="2" stroke-linecap="round"/><path d="M263.55707,207.43405l-11,8l-9,-6" fill="none" stroke="#d20000" stroke-width="2" stroke-linecap="round"/><path d="M267.55707,157.43405l-9,7l5,51l14,10l-6,13l-8,6l7,13l-10,25" fill="none" stroke="#d40000" stroke-width="2" stroke-linecap="round"/><path d="M268.55707,260.43404l17,5l-3,11" fill="none" stroke="#c50000" stroke-width="2" stroke-linecap="round"/><path d="M298.55707,257.43403l151,-3l-152,28l1,-19z" fill="none" stroke="#d20000" stroke-width="2" stroke-linecap="round"/><path d="M179.55707,282.43403l-116,-29l114,3z" fill="none" stroke="#d20000" stroke-width="2" stroke-linecap="round"/><path d="M180.55707,283.43403c0,0 19.28698,38.67223 19.44312,51.00706c0.17504,13.8276 -18.44312,27.99294 -18.44312,27.99294" fill="none" stroke="#d20000" stroke-width="2" stroke-linecap="round"/><path d="M300.55707,362.43404c0,0 -31.09688,-15.51893 -31.61448,-28.97636c-0.47949,-12.46675 28.61448,-49.02364 28.61448,-49.02364" fill="none" stroke="#d20000" stroke-width="2" stroke-linecap="round"/><path d="M380.55707,267.43403l-80,87c0,0 -29,-8.85243 -29,-12c0,-2.81527 29,-6 29,-6l39,-59z" fill="none" stroke="#d20000" stroke-width="2" stroke-linecap="round"/><path d="M116.55707,267.43403l62,60c0,0 20.99527,4.37751 20.49433,9.05297c-0.49905,4.6578 -23.49433,18.94703 -23.49433,18.94703l-77,-91z" fill="none" stroke="#d20000" stroke-width="2" stroke-linecap="round"/><path d="M304.55707,257.43403l17,-31l12,30l20,-25l19,24l15,-19l6,19l1,-50l15,47l17,-31l1,31" fill="none" stroke="#d20000" stroke-width="2" stroke-linecap="round"/><path d="M86.55707,358.43403l-1,-103l-34,-51l82,50l21,-77l24,80" fill="none" stroke="#d20000" stroke-width="2" stroke-linecap="round"/><path d="M112.55707,242.43404l-39,-87l69,69" fill="none" stroke="#d20000" stroke-width="2" stroke-linecap="round"/><path d="M423.55707,260.43402l-5,98" fill="none" stroke="#d20000" stroke-width="2" stroke-linecap="round"/><path d="M366.55707,340.24114l9,-22l12,23" fill="none" stroke="#d20000" stroke-width="2" stroke-linecap="round"/><path d="M404.55707,317.24114l-13,1" fill="none" stroke="#d20000" stroke-width="2" stroke-linecap="round"/><path d="M399.55707,311.24114l5,23" fill="none" stroke="#d20000" stroke-width="2" stroke-linecap="round"/><path d="M350.55707,322.24114l14,-1l-8,15" fill="none" stroke="#d20000" stroke-width="2" stroke-linecap="round"/><path d="M358.55707,311.24114l1,35" fill="none" stroke="#d20000" stroke-width="2" stroke-linecap="round"/><path d="M341.55707,323.24114v29l-13,-9z" fill="none" stroke="#d20000" stroke-width="2" stroke-linecap="round"/><path d="M316.55707,347.24114l10,-12" fill="none" stroke="#d20000" stroke-width="2" stroke-linecap="round"/><path d="M325.55707,352.24114l-8,-12" fill="none" stroke="#d20000" stroke-width="2" stroke-linecap="round"/><path d="M189.55707,357.24114l-6,-4" fill="none" stroke="#d20000" stroke-width="2" stroke-linecap="round"/><path d="M92.55707,352.24114v-16l9,2z" fill="none" stroke="#d20000" stroke-width="2" stroke-linecap="round"/><path d="M134.55707,346.24114l4,-14l1,19l-11,2l-13,-15z" fill="none" stroke="#d20000" stroke-width="2" stroke-linecap="round"/><path d="M102.55707,352.24114l6,-10l13,12l-10,4z" fill="none" stroke="#d20000" stroke-width="2" stroke-linecap="round"/><path d="M156.55707,344.24114l-1,9l-10,-13" fill="none" stroke="#d20000" stroke-width="2" stroke-linecap="round"/><path d="M146.55707,347.24114l14,3" fill="none" stroke="#d20000" stroke-width="2" stroke-linecap="round"/><path d="M379.55707,289.24114h18l5,8v8h-22l-2,-7z" fill="none" stroke="#d20000" stroke-width="2" stroke-linecap="round"/><path d="M409.55707,295.24114h-36l-10,11l-9,-8" fill="none" stroke="#d20000" stroke-width="2" stroke-linecap="round"/><path d="M292.55707,309.24114v6l11,-8v12z" fill="none" stroke="#d20000" stroke-width="2" stroke-linecap="round"/><path d="M99.55707,325.24114l-4,-18l19,-10h-17l20,23l-16,-1z" fill="none" stroke="#d20000" stroke-width="2" stroke-linecap="round"/><path d="M164.55707,299.24114l12,14l-4,9" fill="none" stroke="#d20000" stroke-width="2" stroke-linecap="round"/><path d="M157.55707,283.24114l21,18l-12,8" fill="none" stroke="#d20000" stroke-width="2" stroke-linecap="round"/></g></g></svg>