<svg version="1.1" xmlns="http://www.w3.org/2000/svg" xmlns:xlink="http://www.w3.org/1999/xlink" width="263" height="265" viewBox="0,0,263,265"><g transform="translate(-135.69444,-38.43402)"><g data-paper-data="{&quot;isPaintingLayer&quot;:true}" fill-rule="nonzero" stroke-linejoin="miter" stroke-miterlimit="10" stroke-dasharray="" stroke-dashoffset="0" style="mix-blend-mode: normal"><path d="M135.69444,303.43402v-265h263v265z" fill="none" stroke="none" stroke-width="2" stroke-linecap="butt"/><path d="M228.69444,298.43402v-59l23,-52l5,55l11,56" fill="none" stroke="#ff0000" stroke-width="2" stroke-linecap="round"/><path d="M251.69444,188.43402l5,-56l12,-33" data-paper-data="{&quot;index&quot;:null}" fill="none" stroke="#ff0000" stroke-width="2" stroke-linecap="round"/><path d="M268.69444,175.43402l-34,-5" data-paper-data="{&quot;index&quot;:null}" fill="none" stroke="#ff0000" stroke-width="2" stroke-linecap="round"/><path d="M233.69444,147.43402l42,9" data-paper-data="{&quot;index&quot;:null}" fill="none" stroke="#ff0000" stroke-width="2" stroke-linecap="round"/><path d="M228.69444,128.43402l56,10" data-paper-data="{&quot;index&quot;:null}" fill="none" stroke="#ff0000" stroke-width="2" stroke-linecap="round"/><path d="M291.69444,118.43402l-51,-10" data-paper-data="{&quot;index&quot;:null}" fill="none" stroke="#ff0000" stroke-width="2" stroke-linecap="round"/><path d="M233.69444,93.43402l70,12" data-paper-data="{&quot;index&quot;:null}" fill="none" stroke="#ff0000" stroke-width="2" stroke-linecap="round"/><path d="M201.83051,165.07834l-4.68568,-51.2059l37.67285,-22.82008" fill="none" stroke="#ff0000" stroke-width="2" stroke-linecap="round"/><path d="M304.69444,107.43402l27,61l-5,29" fill="none" stroke="#ff0000" stroke-width="2" stroke-linecap="round"/><path d="M341.37463,198.82665l-60.77739,-18.72301l-46.06481,-12.76845l-51.07984,-15.74326l-37.04983,-9.81376l40.02464,4.79872l13.04511,8.93449" fill="none" stroke="#ff0000" stroke-width="2" stroke-linecap="round"/><path d="M248.69444,95.43402l2,-48l44,6l-7,49" fill="none" stroke="#ff0000" stroke-width="2" stroke-linecap="round"/><path d="M280.69444,57.43402l-5,19" fill="none" stroke="#ff0000" stroke-width="2" stroke-linecap="round"/><path d="M263.69444,92.68402c-1.25,0 -1.25,-1.25 -1.25,-1.25c0,-3 0,-7 0,-10c0,0 0,-1.25 1.25,-1.25c1.25,0 1.25,1.25 1.25,1.25c0,3 0,6 0,9v1c0,0 0,1.25 -1.25,1.25z" fill="#ff0000" stroke="none" stroke-width="0.5" stroke-linecap="butt"/><path d="M271.69444,93.68402c-1.25,0 -1.25,-1.25 -1.25,-1.25c0,-3.33333 0,-7.66667 0,-11c0,0 0,-1.25 1.25,-1.25c1.25,0 1.25,1.25 1.25,1.25c0,3.33333 0,6.66667 0,10v1c0,0 0,1.25 -1.25,1.25z" fill="#ff0000" stroke="none" stroke-width="0.5" stroke-linecap="butt"/><path d="M278.69444,93.68402c-1.25,0 -1.25,-1.25 -1.25,-1.25c0,-3.33333 0,-7.66667 0,-11c0,0 0,-1.25 1.25,-1.25c1.25,0 1.25,1.25 1.25,1.25c0,3.33333 0,6.66667 0,10v1c0,0 0,1.25 -1.25,1.25z" fill="#ff0000" stroke="none" stroke-width="0.5" stroke-linecap="butt"/><path d="M283.44444,94.43402c0,-0.89107 0.63521,-1.14694 1,-1.22041c0,-4.25986 0,-8.51973 0,-12.77959c0,0 0,-1.25 1.25,-1.25c1.25,0 1.25,1.25 1.25,1.25c0,4.66667 0,9.33333 0,14l-2.25,1.25c0,0 -1.25,0 -1.25,-1.25z" fill="#ff0000" stroke="none" stroke-width="0.5" stroke-linecap="butt"/><path d="M263.23803,56.22197l-4.08714,19.42409" fill="none" stroke="#ff0000" stroke-width="2" stroke-linecap="round"/></g></g></svg>