<svg version="1.1" xmlns="http://www.w3.org/2000/svg" xmlns:xlink="http://www.w3.org/1999/xlink" width="126.38736" height="247.44293" viewBox="0,0,126.38736,247.44293"><g transform="translate(-87.36264,-49.30708)"><g data-paper-data="{&quot;isPaintingLayer&quot;:true}" fill-rule="nonzero" stroke-linejoin="miter" stroke-miterlimit="10" stroke-dasharray="" stroke-dashoffset="0" style="mix-blend-mode: normal"><path d="M88.36264,91.30708v-41h90v41z" fill="#000000" stroke="#ff0000" stroke-width="2" stroke-linecap="butt"/><text transform="translate(100.36264,75.30708) scale(0.60348,0.5)" font-size="40" xml:space="preserve" fill="#ff0000" fill-rule="nonzero" stroke="none" stroke-width="1" stroke-linecap="butt" stroke-linejoin="miter" stroke-miterlimit="10" stroke-dasharray="" stroke-dashoffset="0" font-family="Sans Serif" font-weight="normal" text-anchor="start" style="mix-blend-mode: normal"><tspan x="0" dy="0">mage</tspan></text><path d="M120,295.00001l12,-80l19,81" fill="#ff0000" stroke="#ff0000" stroke-width="1.5" stroke-linecap="round"/><path d="M132,217.00001l-1,-51" fill="#ff0000" stroke="#ff0000" stroke-width="1.5" stroke-linecap="round"/><path d="M133,166l43,53" fill="#ff0000" stroke="#ff0000" stroke-width="1.5" stroke-linecap="round"/><path d="M90,199l39,-34" fill="#ff0000" stroke="#ff0000" stroke-width="1.5" stroke-linecap="round"/><path d="M213,227l-53,-13" fill="#ff0000" stroke="#ff0000" stroke-width="1.5" stroke-linecap="round"/><path d="M131.5,165c-8.00813,0 -14.5,-6.93959 -14.5,-15.5c0,-8.56041 6.49187,-15.5 14.5,-15.5c8.00813,0 14.5,6.93959 14.5,15.5c0,8.56041 -6.49187,15.5 -14.5,15.5z" fill="#ff0000" stroke="#ff0000" stroke-width="1.5" stroke-linecap="butt"/><path d="M126,134.99999l15,-51l1,55z" fill="#ff0000" stroke="#ff0000" stroke-width="0.5" stroke-linecap="round"/></g></g></svg>