<svg version="1.1" xmlns="http://www.w3.org/2000/svg" xmlns:xlink="http://www.w3.org/1999/xlink" width="301.93551" height="529.46606" viewBox="0,0,301.93551,529.46606"><g transform="translate(-68.19212,201.78819)"><g data-paper-data="{&quot;isPaintingLayer&quot;:true}" fill-rule="nonzero" stroke-linejoin="miter" stroke-miterlimit="10" stroke-dasharray="" stroke-dashoffset="0" style="mix-blend-mode: normal"><path d="M351.47312,207.20026l-10.54927,-63.69692l14.81324,-2.45332l10.54927,63.69692z" fill="#000000" stroke="#ff0000" stroke-width="2" stroke-linecap="butt"/><path d="M191.94923,128.11374l-63.08642,-5.75546l-25.579,-13.41202l84.96165,-6.04323z" data-paper-data="{&quot;index&quot;:null}" fill="#000000" stroke="#ff0000" stroke-width="2" stroke-linecap="round"/><path d="M296.90986,95.20972l69.59361,49.10939l-28.82898,-1.74853l-56.97214,-27.69833z" fill="#000000" stroke="#ff0000" stroke-width="2" stroke-linecap="round"/><path d="M319.07656,69.26627l-43.75804,69.06907l-39.38224,37.53754l-35.00644,-33.03303l-35.00644,-70.57057l72.20077,34.53454z" fill="#000000" stroke="#ff0000" stroke-width="2" stroke-linecap="round"/><path d="M218.96012,162.17583l21.70697,-3.21585l53.06149,68.33677l0.80397,17.68716l-20.09905,19.29509l-21.70698,-2.41188l16.8832,-30.55056l-32.15848,-45.82583l-8.84358,48.23772l-18.49112,24.11886l-23.3149,-3.21585z" fill="#000000" stroke="#ff0000" stroke-width="2" stroke-linecap="round"/><path d="M99.52193,-13.32604l-0.45045,70.33171l-9.46488,-4.06562l0.19976,-72.81664l-17.41549,21.83869l-3.03875,-75.00016l18.19807,30.79706l-15.2917,-151.58101l20.95561,58.13133l11.17893,-38.78111l0.34235,138.02778l12.68303,-23.8715l0.30161,77.78651z" fill="#000000" stroke="#ff0000" stroke-width="2" stroke-linecap="round"/><path d="M225.65113,307.01379l26.62047,-45.10522l12.7265,2.03697l22.52829,-12.24007l-30.65793,55.73395l31.43624,17.77941l-50.98507,-11.46176z" fill="#000000" stroke="#ff0000" stroke-width="2" stroke-linecap="round"/><path d="M172.33034,306.08502l16.07924,-49.84565l12.86339,-0.80396l19.29508,-16.88321l-17.68717,61.10111l34.57037,10.45151h-52.25752z" fill="#000000" stroke="#ff0000" stroke-width="2" stroke-linecap="round"/><path d="M290.05254,62.76476l-30.03003,69.06907l-27.02702,37.53754l-24.02402,-33.03304l-24.02402,-70.57057l49.54955,34.53453z" fill="#000000" stroke="#ff0000" stroke-width="2" stroke-linecap="round"/><path d="M369.12763,218.91193c0,9.95107 -8.40307,18.01802 -18.76877,18.01802c-10.3657,0 -18.76877,-8.06695 -18.76877,-18.01802c0,-9.95108 8.40306,-18.01801 18.76877,-18.01801c10.3657,0 18.76877,8.06694 18.76877,18.01801z" fill="#000000" stroke="#ff0000" stroke-width="2" stroke-linecap="butt"/><path d="M110.07085,58.14984l7.5598,64.12045l-14.91173,1.75809l-7.5598,-64.12045z" fill="#000000" stroke="#ff0000" stroke-width="2" stroke-linecap="butt"/><path d="M115.46095,51.5966c0,9.53645 -7.73082,17.26726 -17.26727,17.26726c-9.53645,0 -17.26726,-7.73082 -17.26726,-17.26726c0,-9.53645 7.73081,-17.26727 17.26726,-17.26727c9.53645,0 17.26727,7.73082 17.26727,17.26727z" fill="#000000" stroke="#ff0000" stroke-width="2" stroke-linecap="butt"/><path d="M213.47597,107.35476v-73.57357h45.04505v73.57357z" fill="#000000" stroke="#ff0000" stroke-width="2" stroke-linecap="butt"/><path d="M223.99699,52.80371c0,-1.38071 1.11929,-2.5 2.5,-2.5c1.38071,0 2.5,1.11929 2.5,2.5c0,1.38071 -1.11929,2.5 -2.5,2.5c-1.38071,0 -2.5,-1.11929 -2.5,-2.5z" fill="#ff0000" stroke="none" stroke-width="0.5" stroke-linecap="butt"/><path d="M231.75601,53.30521c0,-1.38071 1.11929,-2.5 2.5,-2.5c1.38071,0 2.5,1.11929 2.5,2.5c0,1.38071 -1.11929,2.5 -2.5,2.5c-1.38071,0 -2.5,-1.11929 -2.5,-2.5z" fill="#ff0000" stroke="none" stroke-width="0.5" stroke-linecap="butt"/><path d="M240.39001,54.92871c0,-1.38071 1.11929,-2.5 2.5,-2.5c1.38071,0 2.5,1.11929 2.5,2.5c0,1.38071 -1.11929,2.5 -2.5,2.5c-1.38071,0 -2.5,-1.11929 -2.5,-2.5z" fill="#ff0000" stroke="none" stroke-width="0.5" stroke-linecap="butt"/><path d="M223.24549,59.93771c0,-1.38071 1.11929,-2.5 2.5,-2.5c1.38071,0 2.5,1.11929 2.5,2.5c0,1.38071 -1.11929,2.5 -2.5,2.5c-1.38071,0 -2.5,-1.11929 -2.5,-2.5z" fill="#ff0000" stroke="none" stroke-width="0.5" stroke-linecap="butt"/><path d="M232.5075,61.19071c0,-1.38071 1.11929,-2.5 2.5,-2.5c1.38071,0 2.5,1.11929 2.5,2.5c0,1.38071 -1.11929,2.5 -2.5,2.5c-1.38071,0 -2.5,-1.11929 -2.5,-2.5z" fill="#ff0000" stroke="none" stroke-width="0.5" stroke-linecap="butt"/><path d="M241.01651,63.06271c0,-1.38071 1.11929,-2.5 2.5,-2.5c1.38071,0 2.5,1.11929 2.5,2.5c0,1.38071 -1.11929,2.5 -2.5,2.5c-1.38071,0 -2.5,-1.11929 -2.5,-2.5z" fill="#ff0000" stroke="none" stroke-width="0.5" stroke-linecap="butt"/><path d="M220.98347,136.88329v-27.02703h38.03804v27.02703z" fill="#000000" stroke="#000000" stroke-width="2" stroke-linecap="butt"/><path d="M250.0125,112.31327l3.003,7.67813l-30.03003,4.29975l29.02903,5.22113l-2.002,6.14251l-3.003,-3.37838l-21.02102,-0.30713z" fill="none" stroke="#ff0000" stroke-width="2" stroke-linecap="round"/><path d="M275.03754,178.92533l19.51952,-19.51952l-21.02102,-3.003l30.03003,18.01802l-9.00901,15.01502z" fill="none" stroke="#ff0000" stroke-width="2" stroke-linecap="round"/><path d="M166.92942,160.90731h25.52553l-7.50751,27.02703l13.51351,-4.5045l6.00601,-16.51652l-21.02102,21.02102" fill="none" stroke="#ff0000" stroke-width="2" stroke-linecap="round"/><path d="M181.94444,153.3998l-3.003,-22.52252l-6.00601,7.50751l16.51652,9.00901" fill="none" stroke="#ff0000" stroke-width="2" stroke-linecap="round"/><path d="M275.03755,187.93433l28.52853,15.01502l4.5045,-13.51351l4.5045,37.53754l-12.01201,21.02102l3.003,-24.02402l-9.00901,-16.51652z" fill="none" stroke="#ff0000" stroke-width="2" stroke-linecap="round"/></g></g></svg>