<svg version="1.1" xmlns="http://www.w3.org/2000/svg" xmlns:xlink="http://www.w3.org/1999/xlink" width="347.29472" height="397.14636" viewBox="0,0,347.29472,397.14636"><g transform="translate(-25.83591,-43.2917)"><g data-paper-data="{&quot;isPaintingLayer&quot;:true}" fill-rule="nonzero" stroke-linejoin="miter" stroke-miterlimit="10" stroke-dasharray="" stroke-dashoffset="0" style="mix-blend-mode: normal"><path d="M351.47312,229.72279l-10.54927,-63.69692l14.81324,-2.45332l10.54927,63.69692z" fill="#000000" stroke="#ff0000" stroke-width="2" stroke-linecap="butt"/><path d="M191.94923,147.63326l-63.08642,-5.75546l-25.579,-13.41202l84.96165,-6.04323z" data-paper-data="{&quot;index&quot;:null}" fill="#000000" stroke="#ff0000" stroke-width="2" stroke-linecap="round"/><path d="M296.90986,119.23375l69.59361,49.10939l-28.82898,-1.74853l-56.97214,-27.69833z" fill="#000000" stroke="#ff0000" stroke-width="2" stroke-linecap="round"/><path d="M319.07656,90.28729l-43.75804,69.06907l-39.38224,37.53754l-35.00644,-33.03303l-35.00644,-70.57057l72.20077,34.53454z" fill="#000000" stroke="#ff0000" stroke-width="2" stroke-linecap="round"/><path d="M218.96012,182.17583l21.70697,-3.21585l53.06149,68.33677l0.80397,17.68716l-20.09905,19.29509l-21.70698,-2.41188l16.8832,-30.55056l-32.15848,-45.82583l-8.84358,48.23772l-18.49112,24.11886l-23.3149,-3.21585z" fill="#000000" stroke="#ff0000" stroke-width="2" stroke-linecap="round"/><path d="M72.69288,250.59489l17.66011,-68.0799l8.18107,6.25966l-18.02558,70.55056l22.23324,-16.90889l-15.4204,73.46067l-10.10214,-34.31582l-22.29424,150.71034l-6.08189,-61.49309l-20.33557,34.8627l33.46939,-133.90887l-18.14269,20.03873l18.75654,-75.49188z" fill="#000000" stroke="#ff0000" stroke-width="2" stroke-linecap="round"/><path d="M225.65113,322.01379l26.62047,-45.10522l12.7265,2.03697l22.52829,-12.24007l-30.65793,55.73395l31.43624,17.77941l-50.98507,-11.46176z" fill="#000000" stroke="#ff0000" stroke-width="2" stroke-linecap="round"/><path d="M172.33034,323.08502l16.07924,-49.84565l12.86339,-0.80396l19.29508,-16.88321l-17.68717,61.10111l34.57037,10.45151h-52.25752z" fill="#000000" stroke="#ff0000" stroke-width="2" stroke-linecap="round"/><path d="M290.05254,109.31131l-30.03003,69.06907l-27.02702,37.53754l-24.02402,-33.03304l-24.02402,-70.57057l49.54955,34.53453z" fill="#000000" stroke="#ff0000" stroke-width="2" stroke-linecap="round"/><path d="M372.13063,230.92395c0,9.95107 -8.40307,18.01802 -18.76877,18.01802c-10.3657,0 -18.76877,-8.06695 -18.76877,-18.01802c0,-9.95108 8.40306,-18.01801 18.76877,-18.01801c10.3657,0 18.76877,8.06694 18.76877,18.01801z" fill="#000000" stroke="#ff0000" stroke-width="2" stroke-linecap="butt"/><path d="M122.17636,125.74398l-13.89688,63.05124l-14.66308,-3.23183l13.89688,-63.05124z" fill="#000000" stroke="#ff0000" stroke-width="2" stroke-linecap="butt"/><path d="M113.95945,188.23324c0,9.53645 -7.73082,17.26726 -17.26727,17.26726c-9.53645,0 -17.26726,-7.73082 -17.26726,-17.26726c0,-9.53645 7.73081,-17.26727 17.26726,-17.26727c9.53645,0 17.26727,7.73082 17.26727,17.26727z" fill="#000000" stroke="#ff0000" stroke-width="2" stroke-linecap="butt"/><path d="M213.47597,117.86527v-73.57357h45.04505v73.57357z" fill="#000000" stroke="#ff0000" stroke-width="2" stroke-linecap="butt"/><path d="M223.99699,75.80371c0,-1.38071 1.11929,-2.5 2.5,-2.5c1.38071,0 2.5,1.11929 2.5,2.5c0,1.38071 -1.11929,2.5 -2.5,2.5c-1.38071,0 -2.5,-1.11929 -2.5,-2.5z" fill="#ff0000" stroke="none" stroke-width="0.5" stroke-linecap="butt"/><path d="M231.75601,77.30521c0,-1.38071 1.11929,-2.5 2.5,-2.5c1.38071,0 2.5,1.11929 2.5,2.5c0,1.38071 -1.11929,2.5 -2.5,2.5c-1.38071,0 -2.5,-1.11929 -2.5,-2.5z" fill="#ff0000" stroke="none" stroke-width="0.5" stroke-linecap="butt"/><path d="M240.39001,77.92871c0,-1.38071 1.11929,-2.5 2.5,-2.5c1.38071,0 2.5,1.11929 2.5,2.5c0,1.38071 -1.11929,2.5 -2.5,2.5c-1.38071,0 -2.5,-1.11929 -2.5,-2.5z" fill="#ff0000" stroke="none" stroke-width="0.5" stroke-linecap="butt"/><path d="M223.24549,87.27105c0,-1.38071 1.11929,-2.5 2.5,-2.5c1.38071,0 2.5,1.11929 2.5,2.5c0,1.38071 -1.11929,2.5 -2.5,2.5c-1.38071,0 -2.5,-1.11929 -2.5,-2.5z" fill="#ff0000" stroke="none" stroke-width="0.5" stroke-linecap="butt"/><path d="M232.5075,87.89041c0,-1.38071 1.11929,-2.5 2.5,-2.5c1.38071,0 2.5,1.11929 2.5,2.5c0,1.38071 -1.11929,2.5 -2.5,2.5c-1.38071,0 -2.5,-1.11929 -2.5,-2.5z" fill="#ff0000" stroke="none" stroke-width="0.5" stroke-linecap="butt"/><path d="M241.01651,88.39605c0,-1.38071 1.11929,-2.5 2.5,-2.5c1.38071,0 2.5,1.11929 2.5,2.5c0,1.38071 -1.11929,2.5 -2.5,2.5c-1.38071,0 -2.5,-1.11929 -2.5,-2.5z" fill="#ff0000" stroke="none" stroke-width="0.5" stroke-linecap="butt"/><path d="M220.98347,136.88329v-27.02703h38.03804v27.02703z" fill="#000000" stroke="#000000" stroke-width="2" stroke-linecap="butt"/><path d="M250.0125,152.85381l3.003,7.67813l-30.03003,4.29975l29.02903,5.22113l-2.002,6.14251l-3.003,-3.37838l-21.02102,-0.30713z" fill="none" stroke="#ff0000" stroke-width="2" stroke-linecap="round"/><path d="M275.03754,192.92533l19.51952,-19.51952l-21.02102,-3.003l30.03003,18.01802l-9.00901,15.01502z" fill="none" stroke="#ff0000" stroke-width="2" stroke-linecap="round"/><path d="M166.92942,193.90731h25.52553l-7.50751,27.02703l13.51351,-4.5045l6.00601,-16.51652l-21.02102,21.02102" fill="none" stroke="#ff0000" stroke-width="2" stroke-linecap="round"/><path d="M181.94444,179.3998l-3.003,-22.52252l-6.00601,7.50751l16.51652,9.00901" fill="none" stroke="#ff0000" stroke-width="2" stroke-linecap="round"/><path d="M275.03755,207.601l28.52853,15.01502l4.5045,-13.51351l4.5045,37.53754l-12.01201,21.02102l3.003,-24.02402l-9.00901,-16.51652z" fill="none" stroke="#ff0000" stroke-width="2" stroke-linecap="round"/></g></g></svg>