<svg version="1.1" xmlns="http://www.w3.org/2000/svg" xmlns:xlink="http://www.w3.org/1999/xlink" width="257.57697" height="304.04055" viewBox="0,0,257.57697,304.04055"><g transform="translate(-112.37088,-26.01083)"><g data-paper-data="{&quot;isPaintingLayer&quot;:true}" fill-rule="nonzero" stroke-linejoin="miter" stroke-miterlimit="10" stroke-dasharray="" stroke-dashoffset="0" style="mix-blend-mode: normal"><path d="M124.46368,205.33495l14.21908,-62.97937l14.64636,3.30676l-14.21908,62.97937z" data-paper-data="{&quot;index&quot;:null}" fill="#000000" stroke="#ff0000" stroke-width="2" stroke-linecap="butt"/><path d="M302.06456,88.1563l64.56457,55.55555l-28.52852,-4.5045l-54.05406,-33.03303z" data-paper-data="{&quot;index&quot;:null}" fill="#000000" stroke="#ff0000" stroke-width="2" stroke-linecap="round"/><path d="M200.45797,114.68784l-54.05406,33.03303l-28.52852,4.50451l64.56456,-55.55556z" data-paper-data="{&quot;index&quot;:null}" fill="#000000" stroke="#ff0000" stroke-width="2" stroke-linecap="round"/><path d="M243.37733,109.17734l72.20077,-34.53454l-35.00644,70.57057l-35.00644,33.03303l-39.38224,-37.53754l-43.75804,-69.06907z" data-paper-data="{&quot;index&quot;:null}" fill="#000000" stroke="#ff0000" stroke-width="2" stroke-linecap="round"/><path d="M294.69986,257.00496l-23.3149,3.21585l-18.49112,-24.11886l-8.84358,-48.23772l-32.15848,45.82583l16.8832,30.55056l-21.70698,2.41188l-20.09905,-19.29509l0.80397,-17.68716l53.06149,-68.33677l21.70697,3.21585z" data-paper-data="{&quot;index&quot;:null}" fill="#000000" stroke="#ff0000" stroke-width="2" stroke-linecap="round"/><path d="M244.18188,316.13057l-50.98507,11.46176l31.43624,-17.77941l-30.65793,-55.73395l22.52829,12.24007l12.7265,-2.03697l26.62047,45.10522z" data-paper-data="{&quot;index&quot;:null}" fill="#000000" stroke="#ff0000" stroke-width="2" stroke-linecap="round"/><path d="M301.33187,309.21024l-51.69479,7.64835l32.66842,-15.39864l-26.43939,-57.85447l21.55831,13.87739l12.84254,-1.08737l23.20145,46.95554z" data-paper-data="{&quot;index&quot;:null}" fill="#000000" stroke="#ff0000" stroke-width="2" stroke-linecap="round"/><path d="M245.50299,110.18332l49.54955,-34.53453l-24.02402,70.57057l-24.02402,33.03304l-27.02702,-37.53754l-30.03003,-69.06907z" data-paper-data="{&quot;index&quot;:null}" fill="#000000" stroke="#ff0000" stroke-width="2" stroke-linecap="round"/><path d="M132.13965,194.26742c10.36571,0 18.76877,8.06693 18.76877,18.01801c0,9.95107 -8.40307,18.01802 -18.76877,18.01802c-10.3657,0 -18.76877,-8.06695 -18.76877,-18.01802c0,-9.95107 8.40307,-18.01801 18.76877,-18.01801z" data-paper-data="{&quot;index&quot;:null}" fill="#000000" stroke="#ff0000" stroke-width="2" stroke-linecap="butt"/><path d="M301.765,123.61782l62.44039,16.42502l-3.81977,14.52102l-62.44039,-16.42502z" data-paper-data="{&quot;index&quot;:null}" fill="#000000" stroke="#ff0000" stroke-width="2" stroke-linecap="butt"/><path d="M299.09728,103.24488c9.2227,2.42604 14.73248,11.86921 12.30644,21.09191c-2.42604,9.2227 -11.86921,14.73247 -21.09191,12.30643c-9.2227,-2.42604 -14.73247,-11.86921 -12.30643,-21.09191c2.42604,-9.2227 11.86921,-14.73248 21.09191,-12.30644z" data-paper-data="{&quot;index&quot;:null}" fill="#000000" stroke="#ff0000" stroke-width="2" stroke-linecap="butt"/><path d="M122.56602,185.16297l43.15568,-64.718l-2.58727,26.9075l76.41646,-114.9448l-12.06547,38.5145l49.54282,-36.931l-96.36168,118.0045l32.16612,-15.65149l-43.90198,60.8841l-2.48144,-27.8221l-39.99627,60.849l-10.13742,-1.82921l38.41658,-58.9145z" data-paper-data="{&quot;index&quot;:null}" fill="#000000" stroke="#ff0000" stroke-width="2" stroke-linecap="round"/><path d="M222.98048,110.72826v-73.57357h45.04505v73.57357z" data-paper-data="{&quot;index&quot;:null}" fill="#000000" stroke="#ff0000" stroke-width="2" stroke-linecap="butt"/><path d="M247.00451,62.17721c-1.38071,0 -2.5,-1.11929 -2.5,-2.5c0,-1.38071 1.11929,-2.5 2.5,-2.5c1.38071,0 2.5,1.11929 2.5,2.5c0,1.38071 -1.11929,2.5 -2.5,2.5z" data-paper-data="{&quot;index&quot;:null}" fill="#ff0000" stroke="none" stroke-width="0.5" stroke-linecap="butt"/><path d="M237.9955,63.67871c-1.38071,0 -2.5,-1.11929 -2.5,-2.5c0,-1.38071 1.11929,-2.5 2.5,-2.5c1.38071,0 2.5,1.11929 2.5,2.5c0,1.38071 -1.11929,2.5 -2.5,2.5z" data-paper-data="{&quot;index&quot;:null}" fill="#ff0000" stroke="none" stroke-width="0.5" stroke-linecap="butt"/><path d="M228.98649,62.17721c-1.38071,0 -2.5,-1.11929 -2.5,-2.5c0,-1.38071 1.11929,-2.5 2.5,-2.5c1.38071,0 2.5,1.11929 2.5,2.5c0,1.38071 -1.11929,2.5 -2.5,2.5z" data-paper-data="{&quot;index&quot;:null}" fill="#ff0000" stroke="none" stroke-width="0.5" stroke-linecap="butt"/><path d="M248.50601,71.18622c-1.38071,0 -2.5,-1.11929 -2.5,-2.5c0,-1.38071 1.11929,-2.5 2.5,-2.5c1.38071,0 2.5,1.11929 2.5,2.5c0,1.38071 -1.11929,2.5 -2.5,2.5z" data-paper-data="{&quot;index&quot;:null}" fill="#ff0000" stroke="none" stroke-width="0.5" stroke-linecap="butt"/><path d="M236.494,74.18922c-1.38071,0 -2.5,-1.11929 -2.5,-2.5c0,-1.38071 1.11929,-2.5 2.5,-2.5c1.38071,0 2.5,1.11929 2.5,2.5c0,1.38071 -1.11929,2.5 -2.5,2.5z" data-paper-data="{&quot;index&quot;:null}" fill="#ff0000" stroke="none" stroke-width="0.5" stroke-linecap="butt"/><path d="M227.48499,71.18622c-1.38071,0 -2.5,-1.11929 -2.5,-2.5c0,-1.38071 1.11929,-2.5 2.5,-2.5c1.38071,0 2.5,1.11929 2.5,2.5c0,1.38071 -1.11929,2.5 -2.5,2.5z" data-paper-data="{&quot;index&quot;:null}" fill="#ff0000" stroke="none" stroke-width="0.5" stroke-linecap="butt"/><path d="M222.47999,139.25679v-27.02703h38.03803v27.02703z" data-paper-data="{&quot;index&quot;:null}" fill="#000000" stroke="#000000" stroke-width="2" stroke-linecap="butt"/><path d="M255.51302,134.34279l-21.02102,0.30712l-3.00301,3.37838l-2.002,-6.14251l29.02903,-5.22113l-30.03003,-4.29975l3.003,-7.67813z" data-paper-data="{&quot;index&quot;:null}" fill="none" stroke="#ff0000" stroke-width="2" stroke-linecap="round"/><path d="M186.94446,191.80934l-9.00901,-15.01502l30.03003,-18.01801l-21.02103,3.003l19.51952,19.51952z" data-paper-data="{&quot;index&quot;:null}" fill="none" stroke="#ff0000" stroke-width="2" stroke-linecap="round"/><path d="M298.05557,190.30785l-21.02103,-21.02102l6.00601,16.51651l13.51351,4.50451l-7.5075,-27.02703h25.52552" data-paper-data="{&quot;index&quot;:null}" fill="none" stroke="#ff0000" stroke-width="2" stroke-linecap="round"/><path d="M292.04956,149.76731l16.51652,-9.00901l-6.00601,-7.50751l-3.00301,22.52252" data-paper-data="{&quot;index&quot;:null}" fill="none" stroke="#ff0000" stroke-width="2" stroke-linecap="round"/><path d="M186.94445,209.82736l-9.00901,16.51651l3.003,24.02402l-12.01201,-21.02102l4.5045,-37.53754l4.5045,13.51351l28.52852,-15.01501z" data-paper-data="{&quot;index&quot;:null}" fill="none" stroke="#ff0000" stroke-width="2" stroke-linecap="round"/></g></g></svg>