<svg version="1.1" xmlns="http://www.w3.org/2000/svg" xmlns:xlink="http://www.w3.org/1999/xlink" width="333.92096" height="313.88493" viewBox="0,0,333.92096,313.88493"><g transform="translate(-71.76651,-25.64887)"><g data-paper-data="{&quot;isPaintingLayer&quot;:true}" fill-rule="nonzero" stroke-linejoin="miter" stroke-miterlimit="10" stroke-dasharray="" stroke-dashoffset="0" style="mix-blend-mode: normal"><path d="M160.20329,214.81955l14.21908,-62.97937l14.64637,3.30677l-14.21908,62.97937z" data-paper-data="{&quot;index&quot;:null}" fill="#000000" stroke="#ff0000" stroke-width="2" stroke-linecap="butt"/><path d="M337.80418,97.64091l64.56457,55.55555l-28.52852,-4.5045l-54.05406,-33.03303z" data-paper-data="{&quot;index&quot;:null}" fill="#000000" stroke="#ff0000" stroke-width="2" stroke-linecap="round"/><path d="M236.19759,124.17245l-54.05406,33.03303l-28.52852,4.50451l64.56456,-55.55556z" data-paper-data="{&quot;index&quot;:null}" fill="#000000" stroke="#ff0000" stroke-width="2" stroke-linecap="round"/><path d="M279.11695,118.66195l72.20077,-34.53454l-35.00644,70.57057l-35.00644,33.03303l-39.38224,-37.53754l-43.75804,-69.06907z" data-paper-data="{&quot;index&quot;:null}" fill="#000000" stroke="#ff0000" stroke-width="2" stroke-linecap="round"/><path d="M330.43948,266.48957l-23.3149,3.21585l-18.49112,-24.11886l-8.84358,-48.23772l-32.15848,45.82583l16.8832,30.55056l-21.70698,2.41188l-20.09905,-19.29509l0.80397,-17.68716l53.06149,-68.33677l21.70697,3.21585z" data-paper-data="{&quot;index&quot;:null}" fill="#000000" stroke="#ff0000" stroke-width="2" stroke-linecap="round"/><path d="M308.56867,258.35073l-5.61449,51.95505l-6.6768,-35.49317l-62.64773,11.02015l18.85853,-17.36949l2.18134,-12.70255l51.28466,-10.6308z" data-paper-data="{&quot;index&quot;:null}" fill="#000000" stroke="#ff0000" stroke-width="2" stroke-linecap="round"/><path d="M363.26241,247.86434l-3.26385,52.1555l-8.27194,-35.15564l-62.0865,13.83644l18.05535,-18.20294l1.6058,-12.78808l50.75259,-12.93465z" data-paper-data="{&quot;index&quot;:null}" fill="#000000" stroke="#ff0000" stroke-width="2" stroke-linecap="round"/><path d="M281.24261,119.66793l49.54955,-34.53453l-24.02402,70.57057l-24.02402,33.03304l-27.02702,-37.53754l-30.03003,-69.06907z" data-paper-data="{&quot;index&quot;:null}" fill="#000000" stroke="#ff0000" stroke-width="2" stroke-linecap="round"/><path d="M167.87926,203.75203c10.3657,0 18.76877,8.06693 18.76877,18.01801c0,9.95107 -8.40307,18.01802 -18.76877,18.01802c-10.3657,0 -18.76877,-8.06695 -18.76877,-18.01802c0,-9.95107 8.40307,-18.01801 18.76877,-18.01801z" data-paper-data="{&quot;index&quot;:null}" fill="#000000" stroke="#ff0000" stroke-width="2" stroke-linecap="butt"/><path d="M305.71367,132.60637l80.86037,-3.44675l0.80157,18.80475l-80.86037,3.44675z" data-paper-data="{&quot;index&quot;:null}" fill="#000000" stroke="#ff0000" stroke-width="2" stroke-linecap="butt"/><path d="M231.08154,179.58441l-42.72297,65.00446l2.40771,-26.92417l-75.64794,115.45203l11.80826,-38.59413l-49.29534,37.26068l95.5723,-118.64472l-32.06099,15.86573l43.49484,-61.17562l2.66699,27.80493l39.58945,-61.11447l10.1494,1.76154l-38.02269,59.16947z" data-paper-data="{&quot;index&quot;:null}" fill="#000000" stroke="#ff0000" stroke-width="2" stroke-linecap="round"/><path d="M266.57886,109.93887l-20.02324,-70.79647l43.34478,-12.25913l20.02324,70.79647z" data-paper-data="{&quot;index&quot;:null}" fill="#000000" stroke="#ff0000" stroke-width="2" stroke-linecap="butt"/><path d="M282.74413,71.66182c-1.38071,0 -2.5,-1.11929 -2.5,-2.5c0,-1.38071 1.11929,-2.5 2.5,-2.5c1.38071,0 2.5,1.11929 2.5,2.5c0,1.38071 -1.11929,2.5 -2.5,2.5z" data-paper-data="{&quot;index&quot;:null}" fill="#ff0000" stroke="none" stroke-width="0.5" stroke-linecap="butt"/><path d="M273.73512,73.16332c-1.38071,0 -2.5,-1.11929 -2.5,-2.5c0,-1.38071 1.11929,-2.5 2.5,-2.5c1.38071,0 2.5,1.11929 2.5,2.5c0,1.38071 -1.11929,2.5 -2.5,2.5z" data-paper-data="{&quot;index&quot;:null}" fill="#ff0000" stroke="none" stroke-width="0.5" stroke-linecap="butt"/><path d="M264.72611,71.66182c-1.38071,0 -2.5,-1.11929 -2.5,-2.5c0,-1.38071 1.11929,-2.5 2.5,-2.5c1.38071,0 2.5,1.11929 2.5,2.5c0,1.38071 -1.11929,2.5 -2.5,2.5z" data-paper-data="{&quot;index&quot;:null}" fill="#ff0000" stroke="none" stroke-width="0.5" stroke-linecap="butt"/><path d="M284.24563,80.67083c-1.38071,0 -2.5,-1.11929 -2.5,-2.5c0,-1.38071 1.11929,-2.5 2.5,-2.5c1.38071,0 2.5,1.11929 2.5,2.5c0,1.38071 -1.11929,2.5 -2.5,2.5z" data-paper-data="{&quot;index&quot;:null}" fill="#ff0000" stroke="none" stroke-width="0.5" stroke-linecap="butt"/><path d="M272.23362,83.67383c-1.38071,0 -2.5,-1.11929 -2.5,-2.5c0,-1.38071 1.11929,-2.5 2.5,-2.5c1.38071,0 2.5,1.11929 2.5,2.5c0,1.38071 -1.11929,2.5 -2.5,2.5z" data-paper-data="{&quot;index&quot;:null}" fill="#ff0000" stroke="none" stroke-width="0.5" stroke-linecap="butt"/><path d="M263.22461,80.67083c-1.38071,0 -2.5,-1.11929 -2.5,-2.5c0,-1.38071 1.11929,-2.5 2.5,-2.5c1.38071,0 2.5,1.11929 2.5,2.5c0,1.38071 -1.11929,2.5 -2.5,2.5z" data-paper-data="{&quot;index&quot;:null}" fill="#ff0000" stroke="none" stroke-width="0.5" stroke-linecap="butt"/><path d="M258.21961,148.7414v-27.02703h38.03803v27.02703z" data-paper-data="{&quot;index&quot;:null}" fill="#000000" stroke="#000000" stroke-width="2" stroke-linecap="butt"/><path d="M291.25264,143.8274l-21.02102,0.30712l-3.00301,3.37838l-2.002,-6.14251l29.02903,-5.22113l-30.03003,-4.29975l3.003,-7.67813z" data-paper-data="{&quot;index&quot;:null}" fill="none" stroke="#ff0000" stroke-width="2" stroke-linecap="round"/><path d="M222.68408,201.29395l-9.00901,-15.01502l30.03003,-18.01801l-21.02103,3.003l19.51952,19.51952z" data-paper-data="{&quot;index&quot;:null}" fill="none" stroke="#ff0000" stroke-width="2" stroke-linecap="round"/><path d="M333.79519,199.79246l-21.02103,-21.02102l6.00601,16.51651l13.51351,4.50451l-7.5075,-27.02703h25.52552" data-paper-data="{&quot;index&quot;:null}" fill="none" stroke="#ff0000" stroke-width="2" stroke-linecap="round"/><path d="M327.78918,159.25192l16.51652,-9.00901l-6.00601,-7.50751l-3.00301,22.52252" data-paper-data="{&quot;index&quot;:null}" fill="none" stroke="#ff0000" stroke-width="2" stroke-linecap="round"/><path d="M222.68407,219.31197l-9.00901,16.51651l3.003,24.02402l-12.01201,-21.02102l4.5045,-37.53754l4.5045,13.51351l28.52852,-15.01501z" data-paper-data="{&quot;index&quot;:null}" fill="none" stroke="#ff0000" stroke-width="2" stroke-linecap="round"/><path d="M297.29934,118.73548c9.2227,2.42604 14.73248,11.86921 12.30644,21.09191c-2.42604,9.2227 -11.86921,14.73248 -21.09191,12.30644c-9.2227,-2.42604 -14.73247,-11.86921 -12.30643,-21.09191c2.42604,-9.2227 11.86921,-14.73248 21.09191,-12.30644z" data-paper-data="{&quot;index&quot;:null}" fill="#000000" stroke="#ff0000" stroke-width="2" stroke-linecap="butt"/></g></g></svg>