<svg version="1.1" xmlns="http://www.w3.org/2000/svg" xmlns:xlink="http://www.w3.org/1999/xlink" width="380.55275" height="313.88712" viewBox="0,0,380.55275,313.88712"><g transform="translate(-47.29125,-23.66876)"><g data-paper-data="{&quot;isPaintingLayer&quot;:true}" fill-rule="nonzero" stroke-linejoin="miter" stroke-miterlimit="10" stroke-dasharray="" stroke-dashoffset="0" style="mix-blend-mode: normal"><path d="M135.72803,212.83945l14.21908,-62.97937l14.64637,3.30677l-14.21908,62.97937z" data-paper-data="{&quot;index&quot;:null}" fill="#000000" stroke="#ff0000" stroke-width="2" stroke-linecap="butt"/><path d="M313.32892,95.66081l64.56457,55.55555l-28.52852,-4.5045l-54.05406,-33.03303z" data-paper-data="{&quot;index&quot;:null}" fill="#000000" stroke="#ff0000" stroke-width="2" stroke-linecap="round"/><path d="M211.72233,122.19235l-54.05406,33.03303l-28.52852,4.50451l64.56456,-55.55556z" data-paper-data="{&quot;index&quot;:null}" fill="#000000" stroke="#ff0000" stroke-width="2" stroke-linecap="round"/><path d="M254.64169,116.68185l72.20077,-34.53454l-35.00644,70.57057l-35.00644,33.03303l-39.38224,-37.53754l-43.75804,-69.06907z" data-paper-data="{&quot;index&quot;:null}" fill="#000000" stroke="#ff0000" stroke-width="2" stroke-linecap="round"/><path d="M305.96422,264.50947l-23.3149,3.21585l-18.49112,-24.11886l-8.84358,-48.23772l-32.15848,45.82583l16.8832,30.55056l-21.70698,2.41188l-20.09905,-19.29509l0.80397,-17.68716l53.06149,-68.33677l21.70697,3.21585z" data-paper-data="{&quot;index&quot;:null}" fill="#000000" stroke="#ff0000" stroke-width="2" stroke-linecap="round"/><path d="M255.44624,323.63508l-50.98507,11.46176l31.43624,-17.77941l-30.65793,-55.73395l22.52829,12.24007l12.7265,-2.03697l26.62047,45.10522z" data-paper-data="{&quot;index&quot;:null}" fill="#000000" stroke="#ff0000" stroke-width="2" stroke-linecap="round"/><path d="M312.59622,316.71474l-51.69479,7.64835l32.66842,-15.39864l-26.43939,-57.85447l21.55831,13.87739l12.84255,-1.08737l23.20145,46.95555z" data-paper-data="{&quot;index&quot;:null}" fill="#000000" stroke="#ff0000" stroke-width="2" stroke-linecap="round"/><path d="M256.76735,117.68783l49.54955,-34.53453l-24.02402,70.57057l-24.02402,33.03304l-27.02702,-37.53754l-30.03003,-69.06907z" data-paper-data="{&quot;index&quot;:null}" fill="#000000" stroke="#ff0000" stroke-width="2" stroke-linecap="round"/><path d="M143.404,201.77193c10.3657,0 18.76877,8.06693 18.76877,18.01801c0,9.95107 -8.40307,18.01802 -18.76877,18.01802c-10.3657,0 -18.76877,-8.06695 -18.76877,-18.01802c0,-9.95107 8.40307,-18.01801 18.76877,-18.01801z" data-paper-data="{&quot;index&quot;:null}" fill="#000000" stroke="#ff0000" stroke-width="2" stroke-linecap="butt"/><path d="M405.28531,121.01333l-54.9419,33.91121l-7.88633,-12.77719l54.9419,-33.91121z" data-paper-data="{&quot;index&quot;:null}" fill="#000000" stroke="#ff0000" stroke-width="2" stroke-linecap="butt"/><path d="M413.96523,95.73435c9.2227,2.42604 14.73248,11.86921 12.30644,21.09191c-2.42604,9.2227 -11.86921,14.73248 -21.09191,12.30644c-9.2227,-2.42604 -14.73247,-11.86921 -12.30643,-21.09191c2.42604,-9.2227 11.86921,-14.73248 21.09191,-12.30644z" data-paper-data="{&quot;index&quot;:null}" fill="#000000" stroke="#ff0000" stroke-width="2" stroke-linecap="butt"/><path d="M206.60628,177.6043l-42.72297,65.00446l2.40771,-26.92417l-75.64794,115.45203l11.80826,-38.59413l-49.29534,37.26068l95.5723,-118.64472l-32.06099,15.86573l43.49484,-61.17562l2.66699,27.80493l39.58945,-61.11447l10.1494,1.76154l-38.02269,59.16947z" data-paper-data="{&quot;index&quot;:null}" fill="#000000" stroke="#ff0000" stroke-width="2" stroke-linecap="round"/><path d="M242.1036,107.95877l-20.02324,-70.79647l43.34478,-12.25913l20.02324,70.79647z" data-paper-data="{&quot;index&quot;:null}" fill="#000000" stroke="#ff0000" stroke-width="2" stroke-linecap="butt"/><path d="M258.26887,69.68172c-1.38071,0 -2.5,-1.11929 -2.5,-2.5c0,-1.38071 1.11929,-2.5 2.5,-2.5c1.38071,0 2.5,1.11929 2.5,2.5c0,1.38071 -1.11929,2.5 -2.5,2.5z" data-paper-data="{&quot;index&quot;:null}" fill="#ff0000" stroke="none" stroke-width="0.5" stroke-linecap="butt"/><path d="M249.25986,71.18321c-1.38071,0 -2.5,-1.11929 -2.5,-2.5c0,-1.38071 1.11929,-2.5 2.5,-2.5c1.38071,0 2.5,1.11929 2.5,2.5c0,1.38071 -1.11929,2.5 -2.5,2.5z" data-paper-data="{&quot;index&quot;:null}" fill="#ff0000" stroke="none" stroke-width="0.5" stroke-linecap="butt"/><path d="M240.25085,69.68172c-1.38071,0 -2.5,-1.11929 -2.5,-2.5c0,-1.38071 1.11929,-2.5 2.5,-2.5c1.38071,0 2.5,1.11929 2.5,2.5c0,1.38071 -1.11929,2.5 -2.5,2.5z" data-paper-data="{&quot;index&quot;:null}" fill="#ff0000" stroke="none" stroke-width="0.5" stroke-linecap="butt"/><path d="M259.77037,78.69073c-1.38071,0 -2.5,-1.11929 -2.5,-2.5c0,-1.38071 1.11929,-2.5 2.5,-2.5c1.38071,0 2.5,1.11929 2.5,2.5c0,1.38071 -1.11929,2.5 -2.5,2.5z" data-paper-data="{&quot;index&quot;:null}" fill="#ff0000" stroke="none" stroke-width="0.5" stroke-linecap="butt"/><path d="M247.75836,81.69373c-1.38071,0 -2.5,-1.11929 -2.5,-2.5c0,-1.38071 1.11929,-2.5 2.5,-2.5c1.38071,0 2.5,1.11929 2.5,2.5c0,1.38071 -1.11929,2.5 -2.5,2.5z" data-paper-data="{&quot;index&quot;:null}" fill="#ff0000" stroke="none" stroke-width="0.5" stroke-linecap="butt"/><path d="M238.74935,78.69073c-1.38071,0 -2.5,-1.11929 -2.5,-2.5c0,-1.38071 1.11929,-2.5 2.5,-2.5c1.38071,0 2.5,1.11929 2.5,2.5c0,1.38071 -1.11929,2.5 -2.5,2.5z" data-paper-data="{&quot;index&quot;:null}" fill="#ff0000" stroke="none" stroke-width="0.5" stroke-linecap="butt"/><path d="M233.74435,146.7613v-27.02703h38.03803v27.02703z" data-paper-data="{&quot;index&quot;:null}" fill="#000000" stroke="#000000" stroke-width="2" stroke-linecap="butt"/><path d="M266.77738,141.8473l-21.02102,0.30712l-3.00301,3.37838l-2.002,-6.14251l29.02903,-5.22113l-30.03003,-4.29975l3.003,-7.67813z" data-paper-data="{&quot;index&quot;:null}" fill="none" stroke="#ff0000" stroke-width="2" stroke-linecap="round"/><path d="M198.20882,199.31385l-9.00901,-15.01502l30.03003,-18.01801l-21.02103,3.003l19.51952,19.51952z" data-paper-data="{&quot;index&quot;:null}" fill="none" stroke="#ff0000" stroke-width="2" stroke-linecap="round"/><path d="M309.31993,197.81236l-21.02103,-21.02102l6.00601,16.51651l13.51351,4.50451l-7.5075,-27.02703h25.52552" data-paper-data="{&quot;index&quot;:null}" fill="none" stroke="#ff0000" stroke-width="2" stroke-linecap="round"/><path d="M303.31392,157.27182l16.51652,-9.00901l-6.00601,-7.50751l-3.00301,22.52252" data-paper-data="{&quot;index&quot;:null}" fill="none" stroke="#ff0000" stroke-width="2" stroke-linecap="round"/><path d="M198.20881,217.33187l-9.00901,16.51651l3.003,24.02402l-12.01201,-21.02102l4.5045,-37.53754l4.5045,13.51351l28.52852,-15.01501z" data-paper-data="{&quot;index&quot;:null}" fill="none" stroke="#ff0000" stroke-width="2" stroke-linecap="round"/></g></g></svg>