<svg version="1.1" xmlns="http://www.w3.org/2000/svg" xmlns:xlink="http://www.w3.org/1999/xlink" width="555.01047" height="291.32365" viewBox="0,0,555.01047,291.32365"><g transform="translate(184.88284,-30.78119)"><g data-paper-data="{&quot;isPaintingLayer&quot;:true}" fill-rule="nonzero" stroke-linejoin="miter" stroke-miterlimit="10" stroke-dasharray="" stroke-dashoffset="0" style="mix-blend-mode: normal"><path d="M277.55545,259.53986l-23.53627,3.24638l-18.66669,-24.34787l-8.92755,-48.69574l-32.46382,46.26094l17.04351,30.84064l-21.91309,2.43478l-20.28989,-19.4783l0.8116,-17.8551l53.56531,-68.98562l21.91308,3.24638z" data-paper-data="{&quot;index&quot;:null}" fill="#000000" stroke="#ff0000" stroke-width="2" stroke-linecap="round"/><path d="M351.47312,205.20026l-10.54927,-63.69692l14.81324,-2.45332l10.54927,63.69692z" fill="#000000" stroke="#ff0000" stroke-width="2" stroke-linecap="butt"/><path d="M194.50101,129.73947l-62.84355,-7.98187l-25.08892,-14.30781l85.12217,-3.0362z" data-paper-data="{&quot;index&quot;:null}" fill="#000000" stroke="#ff0000" stroke-width="2" stroke-linecap="round"/><path d="M296.90986,93.20975l69.59361,49.10939l-28.82898,-1.74853l-56.97214,-27.69833z" fill="#000000" stroke="#ff0000" stroke-width="2" stroke-linecap="round"/><path d="M319.07656,67.2663l-43.75804,69.06907l-39.38224,37.53754l-35.00644,-33.03303l-35.00644,-70.57057l72.20077,34.53454z" fill="#000000" stroke="#ff0000" stroke-width="2" stroke-linecap="round"/><path d="M5.73803,95.62882l69.11174,13.05068l-5.69642,8.58278l-71.60136,-13.2495l18.36308,21.04815l-74.33004,-10.45485l33.56037,-12.38268l-151.86687,-12.12811l60.94618,-10.19566l-36.14902,-17.94968l135.85338,24.40579l-21.21129,-16.75675l76.5806,13.64714z" fill="#000000" stroke="#ff0000" stroke-width="2" stroke-linecap="round"/><path d="M288.6362,306.75707l-50.98507,11.46176l31.43624,-17.77941l-30.65793,-55.73395l22.52829,12.24007l12.7265,-2.03697l26.62047,45.10522z" data-paper-data="{&quot;index&quot;:null}" fill="#000000" stroke="#ff0000" stroke-width="2" stroke-linecap="round"/><path d="M204.58786,321.10484h-52.25752l34.57037,-10.45151l-17.68717,-61.10111l19.29508,16.88321l12.86339,0.80396l16.07924,49.84565z" data-paper-data="{&quot;index&quot;:null}" fill="#000000" stroke="#ff0000" stroke-width="2" stroke-linecap="round"/><path d="M291.55404,68.2723l-30.03003,69.06907l-27.02702,37.53754l-24.02402,-33.03304l-24.02402,-70.57057l49.54955,34.53453z" fill="#000000" stroke="#ff0000" stroke-width="2" stroke-linecap="round"/><path d="M369.12763,216.91194c0,9.95107 -8.40307,18.01802 -18.76877,18.01802c-10.3657,0 -18.76877,-8.06695 -18.76877,-18.01802c0,-9.95108 8.40306,-18.01801 18.76877,-18.01801c10.3657,0 18.76877,8.06694 18.76877,18.01801z" fill="#000000" stroke="#ff0000" stroke-width="2" stroke-linecap="butt"/><path d="M75.92691,105.87048l64.51674,2.48448l-0.57779,15.00389l-64.51674,-2.48448z" fill="#000000" stroke="#ff0000" stroke-width="2" stroke-linecap="butt"/><path d="M82.42792,112.6597c0,9.53645 -7.73082,17.26726 -17.26727,17.26726c-9.53645,0 -17.26726,-7.73082 -17.26726,-17.26726c0,-9.53645 7.73081,-17.26727 17.26726,-17.26727c9.53645,0 17.26727,7.73082 17.26727,17.26727z" fill="#000000" stroke="#ff0000" stroke-width="2" stroke-linecap="butt"/><path d="M213.47597,105.35477v-73.57357h45.04505v73.57357z" fill="#000000" stroke="#ff0000" stroke-width="2" stroke-linecap="butt"/><path d="M217.37199,54.42874c0,-1.38071 1.11929,-2.5 2.5,-2.5c1.38071,0 2.5,1.11929 2.5,2.5c0,1.38071 -1.11929,2.5 -2.5,2.5c-1.38071,0 -2.5,-1.11929 -2.5,-2.5z" fill="#ff0000" stroke="none" stroke-width="0.5" stroke-linecap="butt"/><path d="M225.25601,54.05524c0,-1.38071 1.11929,-2.5 2.5,-2.5c1.38071,0 2.5,1.11929 2.5,2.5c0,1.38071 -1.11929,2.5 -2.5,2.5c-1.38071,0 -2.5,-1.11929 -2.5,-2.5z" fill="#ff0000" stroke="none" stroke-width="0.5" stroke-linecap="butt"/><path d="M233.51501,54.17874c0,-1.38071 1.11929,-2.5 2.5,-2.5c1.38071,0 2.5,1.11929 2.5,2.5c0,1.38071 -1.11929,2.5 -2.5,2.5c-1.38071,0 -2.5,-1.11929 -2.5,-2.5z" fill="#ff0000" stroke="none" stroke-width="0.5" stroke-linecap="butt"/><path d="M219.37049,64.18773c0,-1.38071 1.11929,-2.5 2.5,-2.5c1.38071,0 2.5,1.11929 2.5,2.5c0,1.38071 -1.11929,2.5 -2.5,2.5c-1.38071,0 -2.5,-1.11929 -2.5,-2.5z" fill="#ff0000" stroke="none" stroke-width="0.5" stroke-linecap="butt"/><path d="M228.2575,64.69073c0,-1.38071 1.11929,-2.5 2.5,-2.5c1.38071,0 2.5,1.11929 2.5,2.5c0,1.38071 -1.11929,2.5 -2.5,2.5c-1.38071,0 -2.5,-1.11929 -2.5,-2.5z" fill="#ff0000" stroke="none" stroke-width="0.5" stroke-linecap="butt"/><path d="M235.39151,65.18773c0,-1.38071 1.11929,-2.5 2.5,-2.5c1.38071,0 2.5,1.11929 2.5,2.5c0,1.38071 -1.11929,2.5 -2.5,2.5c-1.38071,0 -2.5,-1.11929 -2.5,-2.5z" fill="#ff0000" stroke="none" stroke-width="0.5" stroke-linecap="butt"/><path d="M220.98347,134.88329v-27.02703h38.03804v27.02703z" fill="#000000" stroke="#000000" stroke-width="2" stroke-linecap="butt"/><path d="M250.0125,110.3133l3.003,7.67813l-30.03003,4.29975l29.02903,5.22113l-2.002,6.14251l-3.003,-3.37838l-21.02102,-0.30713z" fill="none" stroke="#ff0000" stroke-width="2" stroke-linecap="round"/><path d="M275.03754,176.92536l19.51952,-19.51952l-21.02102,-3.003l30.03003,18.01802l-9.00901,15.01502z" fill="none" stroke="#ff0000" stroke-width="2" stroke-linecap="round"/><path d="M166.92942,158.90732h25.52553l-7.50751,27.02703l13.51351,-4.5045l6.00601,-16.51652l-21.02102,21.02102" fill="none" stroke="#ff0000" stroke-width="2" stroke-linecap="round"/><path d="M181.94444,151.39981l-3.003,-22.52252l-6.00601,7.50751l16.51652,9.00901" fill="none" stroke="#ff0000" stroke-width="2" stroke-linecap="round"/><path d="M275.03755,185.93434l28.52853,15.01502l4.5045,-13.51351l4.5045,37.53754l-12.01201,21.02102l3.003,-24.02402l-9.00901,-16.51652z" fill="none" stroke="#ff0000" stroke-width="2" stroke-linecap="round"/></g></g></svg>