<svg version="1.1" xmlns="http://www.w3.org/2000/svg" xmlns:xlink="http://www.w3.org/1999/xlink" width="255.39117" height="244.10237" viewBox="0,0,255.39117,244.10237"><g transform="translate(-111.55366,-56.66686)"><g data-paper-data="{&quot;isPaintingLayer&quot;:true}" fill="#ff00c5" fill-rule="nonzero" stroke="#0008ff" stroke-linejoin="miter" stroke-miterlimit="10" stroke-dasharray="" stroke-dashoffset="0" style="mix-blend-mode: normal"><path d="M335.0976,230.92945v-64.56457h15.01502v64.56457z" stroke-width="2" stroke-linecap="butt"/><path d="M197.45496,129.32284l-54.05406,33.03303l-28.52852,4.5045l64.56457,-55.55555z" data-paper-data="{&quot;index&quot;:null}" stroke-width="2" stroke-linecap="round"/><path d="M299.06156,119.81834l64.56456,55.55556l-28.52852,-4.50451l-54.05406,-33.03303z" stroke-width="2" stroke-linecap="round"/><path d="M319.07657,94.78831l-43.75804,69.06907l-39.38224,37.53754l-35.00644,-33.03303l-35.00644,-70.57057l72.20077,34.53454z" stroke-width="2" stroke-linecap="round"/><path d="M224.91173,183.77956l20.03366,8.9547l8.01804,86.14608l-8.82814,15.34751l-27.31964,5.46895l-17.009,-13.70052l30.6571,-16.68896l-2.48944,-55.92832l-33.38348,35.92533l-28.55627,10.40098l-17.93284,-15.24269z" stroke-width="2" stroke-linecap="round"/><path d="M291.55406,95.79431l-30.03003,69.06907l-27.02702,37.53754l-24.02402,-33.03304l-24.02402,-70.57057l49.54955,34.53453z" stroke-width="2" stroke-linecap="round"/><path d="M365.12763,235.43395c0,9.95107 -8.40307,18.01802 -18.76877,18.01802c-10.3657,0 -18.76877,-8.06695 -18.76877,-18.01802c0,-9.95108 8.40306,-18.01801 18.76877,-18.01801c10.3657,0 18.76877,8.06694 18.76877,18.01801z" stroke-width="2" stroke-linecap="butt"/><path d="M131.38889,225.41894v-64.56456h15.01501v64.56456z" stroke-width="2" stroke-linecap="butt"/><path d="M165.42793,233.1817c0,9.53645 -7.73082,17.26726 -17.26727,17.26726c-9.53645,0 -17.26726,-7.73082 -17.26726,-17.26726c0,-9.53645 7.73081,-17.26727 17.26726,-17.26727c9.53645,0 17.26727,7.73082 17.26727,17.26727z" stroke-width="2" stroke-linecap="butt"/><path d="M317.76035,200.1675l38.41658,58.9145l-10.13742,1.82921l-39.99628,-60.849l-2.48144,27.82211l-43.90198,-60.8841l32.16613,15.6515l-96.36168,-118.0045l49.54282,36.93099l-12.06547,-38.5145l76.41646,114.9448l-2.58727,-26.9075l43.15568,64.718z" stroke-width="2" stroke-linecap="round"/><path d="M213.47598,133.87678v-73.57357h45.04505v73.57357z" stroke-width="2" stroke-linecap="butt"/><path d="M231.997,82.82573c0,-1.38071 1.11929,-2.5 2.5,-2.5c1.38071,0 2.5,1.11929 2.5,2.5c0,1.38071 -1.11929,2.5 -2.5,2.5c-1.38071,0 -2.5,-1.11929 -2.5,-2.5z" stroke-width="0.5" stroke-linecap="butt"/><path d="M241.00601,84.32723c0,-1.38071 1.11929,-2.5 2.5,-2.5c1.38071,0 2.5,1.11929 2.5,2.5c0,1.38071 -1.11929,2.5 -2.5,2.5c-1.38071,0 -2.5,-1.11929 -2.5,-2.5z" stroke-width="0.5" stroke-linecap="butt"/><path d="M250.01502,82.82573c0,-1.38071 1.11929,-2.5 2.5,-2.5c1.38071,0 2.5,1.11929 2.5,2.5c0,1.38071 -1.11929,2.5 -2.5,2.5c-1.38071,0 -2.5,-1.11929 -2.5,-2.5z" stroke-width="0.5" stroke-linecap="butt"/><path d="M230.4955,91.83474c0,-1.38071 1.11929,-2.5 2.5,-2.5c1.38071,0 2.5,1.11929 2.5,2.5c0,1.38071 -1.11929,2.5 -2.5,2.5c-1.38071,0 -2.5,-1.11929 -2.5,-2.5z" stroke-width="0.5" stroke-linecap="butt"/><path d="M242.50751,94.83774c0,-1.38071 1.11929,-2.5 2.5,-2.5c1.38071,0 2.5,1.11929 2.5,2.5c0,1.38071 -1.11929,2.5 -2.5,2.5c-1.38071,0 -2.5,-1.11929 -2.5,-2.5z" stroke-width="0.5" stroke-linecap="butt"/><path d="M251.51652,91.83474c0,-1.38071 1.11929,-2.5 2.5,-2.5c1.38071,0 2.5,1.11929 2.5,2.5c0,1.38071 -1.11929,2.5 -2.5,2.5c-1.38071,0 -2.5,-1.11929 -2.5,-2.5z" stroke-width="0.5" stroke-linecap="butt"/><path d="M220.98348,162.40531v-27.02703h38.03804v27.02703z" stroke-width="2" stroke-linecap="butt"/><path d="M250.01251,137.83529l3.003,7.67813l-30.03003,4.29975l29.02903,5.22113l-2.002,6.14251l-3.003,-3.37838l-21.02102,-0.30713z" stroke-width="2" stroke-linecap="round"/><path d="M275.03754,204.44735l19.51952,-19.51952l-21.02102,-3.003l30.03003,18.01802l-9.00901,15.01502z" stroke-width="2" stroke-linecap="round"/><path d="M166.92943,186.42933h25.52553l-7.50751,27.02703l13.51351,-4.5045l6.00601,-16.51652l-21.02102,21.02102" stroke-width="2" stroke-linecap="round"/><path d="M181.94445,178.92183l-3.003,-22.52252l-6.00601,7.50751l16.51652,9.00901" stroke-width="2" stroke-linecap="round"/><path d="M275.03754,213.45635l28.52853,15.01502l4.5045,-13.51351l4.5045,37.53754l-12.01201,21.02102l3.003,-24.02402l-9.00901,-16.51652z" stroke-width="2" stroke-linecap="round"/></g></g></svg>