<svg version="1.1" xmlns="http://www.w3.org/2000/svg" xmlns:xlink="http://www.w3.org/1999/xlink" width="333.92096" height="313.88493" viewBox="0,0,333.92096,313.88493"><g transform="translate(-74.31254,-25.64887)"><g data-paper-data="{&quot;isPaintingLayer&quot;:true}" fill-rule="nonzero" stroke-linejoin="miter" stroke-miterlimit="10" stroke-dasharray="" stroke-dashoffset="0" style="mix-blend-mode: normal"><path d="M305.15035,218.12633l-14.21908,-62.97937l14.64637,-3.30677l14.21908,62.97937z" fill="#000000" stroke="#ff0000" stroke-width="2" stroke-linecap="butt"/><path d="M160.21384,115.65894l-54.05406,33.03303l-28.52852,4.5045l64.56457,-55.55555z" data-paper-data="{&quot;index&quot;:null}" fill="#000000" stroke="#ff0000" stroke-width="2" stroke-linecap="round"/><path d="M261.82044,106.15444l64.56456,55.55556l-28.52852,-4.50451l-54.05406,-33.03303z" fill="#000000" stroke="#ff0000" stroke-width="2" stroke-linecap="round"/><path d="M281.83545,81.12441l-43.75804,69.06907l-39.38224,37.53754l-35.00644,-33.03303l-35.00644,-70.57057l72.20077,34.53454z" fill="#000000" stroke="#ff0000" stroke-width="2" stroke-linecap="round"/><path d="M181.71901,174.03395l21.70697,-3.21585l53.06149,68.33677l0.80397,17.68716l-20.09905,19.29509l-21.70698,-2.41188l16.8832,-30.55056l-32.15848,-45.82583l-8.84358,48.23772l-18.49112,24.11886l-23.3149,-3.21585z" fill="#000000" stroke="#ff0000" stroke-width="2" stroke-linecap="round"/><path d="M174.04583,245.12993l51.28466,10.6308l2.18134,12.70255l18.85853,17.36949l-62.64773,-11.02015l-6.6768,35.49317l-5.61449,-51.95505z" fill="#000000" stroke="#ff0000" stroke-width="2" stroke-linecap="round"/><path d="M119.94615,234.77498l50.75259,12.93465l1.6058,12.78808l18.05535,18.20294l-62.0865,-13.83644l-8.27194,35.15564l-3.26385,-52.1555z" fill="#000000" stroke="#ff0000" stroke-width="2" stroke-linecap="round"/><path d="M254.31294,82.13041l-30.03003,69.06907l-27.02702,37.53754l-24.02402,-33.03304l-24.02402,-70.57057l49.54955,34.53453z" fill="#000000" stroke="#ff0000" stroke-width="2" stroke-linecap="round"/><path d="M330.88952,221.77005c0,9.95107 -8.40307,18.01802 -18.76877,18.01802c-10.3657,0 -18.76877,-8.06695 -18.76877,-18.01802c0,-9.95108 8.40307,-18.01801 18.76877,-18.01801c10.3657,0 18.76877,8.06694 18.76877,18.01801z" fill="#000000" stroke="#ff0000" stroke-width="2" stroke-linecap="butt"/><path d="M173.48477,151.41113l-80.86037,-3.44675l0.80157,-18.80475l80.86037,3.44675z" fill="#000000" stroke="#ff0000" stroke-width="2" stroke-linecap="butt"/><path d="M280.97945,195.45015l-38.02269,-59.16947l10.1494,-1.76154l39.58945,61.11447l2.66699,-27.80493l43.49484,61.17562l-32.06099,-15.86573l95.5723,118.64472l-49.29534,-37.26068l11.80826,38.59413l-75.64794,-115.45203l2.40771,26.92417l-42.72297,-65.00446z" fill="#000000" stroke="#ff0000" stroke-width="2" stroke-linecap="round"/><path d="M170.07637,97.67975l20.02324,-70.79647l43.34478,12.25913l-20.02324,70.79647z" fill="#000000" stroke="#ff0000" stroke-width="2" stroke-linecap="butt"/><path d="M183.74237,148.7414v-27.02703h38.03803v27.02703z" fill="#000000" stroke="#000000" stroke-width="2" stroke-linecap="butt"/><path d="M212.7714,124.17139l3.003,7.67813l-30.03003,4.29975l29.02903,5.22113l-2.002,6.14251l-3.00301,-3.37838l-21.02102,-0.30712z" fill="none" stroke="#ff0000" stroke-width="2" stroke-linecap="round"/><path d="M237.79642,190.78345l19.51952,-19.51952l-21.02103,-3.003l30.03003,18.01801l-9.00901,15.01502z" fill="none" stroke="#ff0000" stroke-width="2" stroke-linecap="round"/><path d="M129.68831,172.76544h25.52552l-7.5075,27.02703l13.51351,-4.50451l6.00601,-16.51651l-21.02103,21.02102" fill="none" stroke="#ff0000" stroke-width="2" stroke-linecap="round"/><path d="M144.70333,165.25793l-3.00301,-22.52252l-6.00601,7.50751l16.51652,9.00901" fill="none" stroke="#ff0000" stroke-width="2" stroke-linecap="round"/><path d="M237.79644,199.79245l28.52852,15.01501l4.5045,-13.51351l4.5045,37.53754l-12.01201,21.02102l3.003,-24.02402l-9.00901,-16.51651z" fill="none" stroke="#ff0000" stroke-width="2" stroke-linecap="round"/><path d="M182.70066,118.73549c9.2227,-2.42604 18.66587,3.08374 21.09191,12.30644c2.42604,9.2227 -3.08373,18.66587 -12.30643,21.09191c-9.2227,2.42604 -18.66587,-3.08374 -21.09191,-12.30644c-2.42604,-9.2227 3.08374,-18.66587 12.30644,-21.09191z" fill="#000000" stroke="#ff0000" stroke-width="2" stroke-linecap="butt"/><g fill="none" stroke="#ff0000" stroke-width="5" stroke-linecap="round"><path d="M216.97165,79l-9.5625,-18"/><path d="M203.64561,76.06152l16.52707,-13.40875"/></g><g fill="none" stroke="#ff0000" stroke-width="5" stroke-linecap="round"><path d="M199.97165,76l-9.5625,-18"/><path d="M186.64561,73.06152l16.52708,-13.40875"/></g></g></g></svg>