<svg version="1.1" xmlns="http://www.w3.org/2000/svg" xmlns:xlink="http://www.w3.org/1999/xlink" width="255.39117" height="296.53303" viewBox="0,0,255.39117,296.53303"><g transform="translate(-111.55366,-31.14484)"><g data-paper-data="{&quot;isPaintingLayer&quot;:true}" fill-rule="nonzero" stroke-linejoin="miter" stroke-miterlimit="10" stroke-dasharray="" stroke-dashoffset="0" style="mix-blend-mode: normal"><path d="M335.09759,205.40742v-64.56457h15.01502v64.56457z" fill="#000000" stroke="#ff0000" stroke-width="2" stroke-linecap="butt"/><path d="M197.45496,103.80081l-54.05406,33.03303l-28.52852,4.5045l64.56457,-55.55555z" data-paper-data="{&quot;index&quot;:null}" fill="#000000" stroke="#ff0000" stroke-width="2" stroke-linecap="round"/><path d="M299.06156,94.29631l64.56456,55.55556l-28.52852,-4.50451l-54.05406,-33.03303z" fill="#000000" stroke="#ff0000" stroke-width="2" stroke-linecap="round"/><path d="M319.07656,69.26628l-43.75804,69.06907l-39.38224,37.53754l-35.00644,-33.03303l-35.00644,-70.57057l72.20077,34.53454z" fill="#000000" stroke="#ff0000" stroke-width="2" stroke-linecap="round"/><path d="M218.96012,162.17582l21.70697,-3.21585l53.06149,68.33677l0.80397,17.68716l-20.09905,19.29509l-21.70698,-2.41188l16.8832,-30.55056l-32.15848,-45.82583l-8.84358,48.23772l-18.49112,24.11886l-23.3149,-3.21585z" fill="#000000" stroke="#ff0000" stroke-width="2" stroke-linecap="round"/><path d="M225.65113,307.01378l26.62047,-45.10522l12.7265,2.03697l22.52829,-12.24007l-30.65793,55.73395l31.43624,17.77941l-50.98507,-11.46176z" fill="#000000" stroke="#ff0000" stroke-width="2" stroke-linecap="round"/><path d="M172.33034,306.08503l16.07924,-49.84565l12.86339,-0.80396l19.29508,-16.88321l-17.68717,61.10111l34.57037,10.45151h-52.25752z" fill="#000000" stroke="#ff0000" stroke-width="2" stroke-linecap="round"/><path d="M291.55405,70.27228l-30.03003,69.06907l-27.02702,37.53754l-24.02402,-33.03304l-24.02402,-70.57057l49.54955,34.53453z" fill="#000000" stroke="#ff0000" stroke-width="2" stroke-linecap="round"/><path d="M365.12763,209.91192c0,9.95107 -8.40307,18.01802 -18.76877,18.01802c-10.3657,0 -18.76877,-8.06695 -18.76877,-18.01802c0,-9.95108 8.40306,-18.01801 18.76877,-18.01801c10.3657,0 18.76877,8.06694 18.76877,18.01801z" fill="#000000" stroke="#ff0000" stroke-width="2" stroke-linecap="butt"/><path d="M131.38888,199.89691v-64.56456h15.01501v64.56456z" fill="#000000" stroke="#ff0000" stroke-width="2" stroke-linecap="butt"/><path d="M165.42792,207.65967c0,9.53645 -7.73082,17.26726 -17.26727,17.26726c-9.53645,0 -17.26726,-7.73082 -17.26726,-17.26726c0,-9.53645 7.73081,-17.26727 17.26726,-17.26727c9.53645,0 17.26727,7.73082 17.26727,17.26727z" fill="#000000" stroke="#ff0000" stroke-width="2" stroke-linecap="butt"/><path d="M317.76035,174.64547l38.41658,58.9145l-10.13742,1.82921l-39.99628,-60.849l-2.48144,27.82211l-43.90198,-60.8841l32.16613,15.6515l-96.36168,-118.0045l49.54282,36.93099l-12.06547,-38.5145l76.41646,114.9448l-2.58727,-26.9075l43.15568,64.718z" fill="#000000" stroke="#ff0000" stroke-width="2" stroke-linecap="round"/><path d="M213.47597,107.35475v-73.57357h45.04505v73.57357z" fill="#000000" stroke="#ff0000" stroke-width="2" stroke-linecap="butt"/><path d="M231.99699,57.3037c0,-1.38071 1.11929,-2.5 2.5,-2.5c1.38071,0 2.5,1.11929 2.5,2.5c0,1.38071 -1.11929,2.5 -2.5,2.5c-1.38071,0 -2.5,-1.11929 -2.5,-2.5z" fill="#ff0000" stroke="none" stroke-width="0.5" stroke-linecap="butt"/><path d="M241.00601,58.8052c0,-1.38071 1.11929,-2.5 2.5,-2.5c1.38071,0 2.5,1.11929 2.5,2.5c0,1.38071 -1.11929,2.5 -2.5,2.5c-1.38071,0 -2.5,-1.11929 -2.5,-2.5z" fill="#ff0000" stroke="none" stroke-width="0.5" stroke-linecap="butt"/><path d="M250.01501,57.3037c0,-1.38071 1.11929,-2.5 2.5,-2.5c1.38071,0 2.5,1.11929 2.5,2.5c0,1.38071 -1.11929,2.5 -2.5,2.5c-1.38071,0 -2.5,-1.11929 -2.5,-2.5z" fill="#ff0000" stroke="none" stroke-width="0.5" stroke-linecap="butt"/><path d="M230.49549,66.31271c0,-1.38071 1.11929,-2.5 2.5,-2.5c1.38071,0 2.5,1.11929 2.5,2.5c0,1.38071 -1.11929,2.5 -2.5,2.5c-1.38071,0 -2.5,-1.11929 -2.5,-2.5z" fill="#ff0000" stroke="none" stroke-width="0.5" stroke-linecap="butt"/><path d="M242.5075,69.31571c0,-1.38071 1.11929,-2.5 2.5,-2.5c1.38071,0 2.5,1.11929 2.5,2.5c0,1.38071 -1.11929,2.5 -2.5,2.5c-1.38071,0 -2.5,-1.11929 -2.5,-2.5z" fill="#ff0000" stroke="none" stroke-width="0.5" stroke-linecap="butt"/><path d="M251.51651,66.31271c0,-1.38071 1.11929,-2.5 2.5,-2.5c1.38071,0 2.5,1.11929 2.5,2.5c0,1.38071 -1.11929,2.5 -2.5,2.5c-1.38071,0 -2.5,-1.11929 -2.5,-2.5z" fill="#ff0000" stroke="none" stroke-width="0.5" stroke-linecap="butt"/><path d="M220.98347,136.88328v-27.02703h38.03804v27.02703z" fill="#000000" stroke="#000000" stroke-width="2" stroke-linecap="butt"/><path d="M250.0125,112.31326l3.003,7.67813l-30.03003,4.29975l29.02903,5.22113l-2.002,6.14251l-3.003,-3.37838l-21.02102,-0.30713z" fill="none" stroke="#ff0000" stroke-width="2" stroke-linecap="round"/><path d="M275.03754,178.92532l19.51952,-19.51952l-21.02102,-3.003l30.03003,18.01802l-9.00901,15.01502z" fill="none" stroke="#ff0000" stroke-width="2" stroke-linecap="round"/><path d="M166.92942,160.9073h25.52553l-7.50751,27.02703l13.51351,-4.5045l6.00601,-16.51652l-21.02102,21.02102" fill="none" stroke="#ff0000" stroke-width="2" stroke-linecap="round"/><path d="M181.94444,153.3998l-3.003,-22.52252l-6.00601,7.50751l16.51652,9.00901" fill="none" stroke="#ff0000" stroke-width="2" stroke-linecap="round"/><path d="M275.03755,187.93432l28.52853,15.01502l4.5045,-13.51351l4.5045,37.53754l-12.01201,21.02102l3.003,-24.02402l-9.00901,-16.51652z" fill="none" stroke="#ff0000" stroke-width="2" stroke-linecap="round"/></g></g></svg>