<svg version="1.1" xmlns="http://www.w3.org/2000/svg" xmlns:xlink="http://www.w3.org/1999/xlink" width="255.39117" height="244.10237" viewBox="0,0,255.39117,244.10237"><g transform="translate(-113.05518,-56.66687)"><g data-paper-data="{&quot;isPaintingLayer&quot;:true}" fill-rule="nonzero" stroke-linejoin="miter" stroke-miterlimit="10" stroke-dasharray="" stroke-dashoffset="0" style="mix-blend-mode: normal"><path d="M129.8874,230.92946v-64.56457h15.01502v64.56457z" data-paper-data="{&quot;index&quot;:null}" fill="#ff00c5" stroke="#0008ff" stroke-width="2" stroke-linecap="butt"/><path d="M300.56307,111.30483l64.56457,55.55555l-28.52852,-4.5045l-54.05406,-33.03303z" data-paper-data="{&quot;index&quot;:null}" fill="#ff00c5" stroke="#0008ff" stroke-width="2" stroke-linecap="round"/><path d="M198.95648,137.83637l-54.05406,33.03303l-28.52852,4.50451l64.56456,-55.55556z" data-paper-data="{&quot;index&quot;:null}" fill="#ff00c5" stroke="#0008ff" stroke-width="2" stroke-linecap="round"/><path d="M241.87584,132.32587l72.20077,-34.53454l-35.00644,70.57057l-35.00644,33.03303l-39.38224,-37.53754l-43.75804,-69.06907z" data-paper-data="{&quot;index&quot;:null}" fill="#ff00c5" stroke="#0008ff" stroke-width="2" stroke-linecap="round"/><path d="M331.8983,244.46263l-17.93284,15.24269l-28.55627,-10.40098l-33.38348,-35.92533l-2.48944,55.92832l30.6571,16.68896l-17.009,13.70052l-27.31964,-5.46895l-8.82814,-15.34751l8.01804,-86.14608l20.03366,-8.9547z" data-paper-data="{&quot;index&quot;:null}" fill="#ff00c5" stroke="#0008ff" stroke-width="2" stroke-linecap="round"/><path d="M244.0015,133.33184l49.54955,-34.53453l-24.02402,70.57057l-24.02402,33.03304l-27.02702,-37.53754l-30.03003,-69.06907z" data-paper-data="{&quot;index&quot;:null}" fill="#ff00c5" stroke="#0008ff" stroke-width="2" stroke-linecap="round"/><path d="M133.64116,217.41595c10.36571,0 18.76877,8.06693 18.76877,18.01801c0,9.95107 -8.40307,18.01802 -18.76877,18.01802c-10.3657,0 -18.76877,-8.06695 -18.76877,-18.01802c0,-9.95107 8.40307,-18.01801 18.76877,-18.01801z" data-paper-data="{&quot;index&quot;:null}" fill="#ff00c5" stroke="#0008ff" stroke-width="2" stroke-linecap="butt"/><path d="M333.59612,225.41895v-64.56456h15.01501v64.56456z" data-paper-data="{&quot;index&quot;:null}" fill="#ff00c5" stroke="#0008ff" stroke-width="2" stroke-linecap="butt"/><path d="M331.83936,215.91444c9.53645,0 17.26726,7.73082 17.26726,17.26727c0,9.53644 -7.73081,17.26726 -17.26726,17.26726c-9.53645,0 -17.26727,-7.73081 -17.26727,-17.26726c0,-9.53645 7.73082,-17.26727 17.26727,-17.26727z" data-paper-data="{&quot;index&quot;:null}" fill="#ff00c5" stroke="#0008ff" stroke-width="2" stroke-linecap="butt"/><path d="M130.07354,215.81902l43.15568,-64.718l-2.58727,26.9075l76.41646,-114.9448l-12.06547,38.5145l49.54282,-36.93099l-96.36168,118.0045l32.16613,-15.6515l-43.90198,60.8841l-2.48144,-27.82211l-39.99628,60.849l-10.13742,-1.82921l38.41658,-58.9145z" data-paper-data="{&quot;index&quot;:null}" fill="#ff00c5" stroke="#0008ff" stroke-width="2" stroke-linecap="round"/><path d="M221.47899,133.87679v-73.57357h45.04505v73.57357z" data-paper-data="{&quot;index&quot;:null}" fill="#ff00c5" stroke="#0008ff" stroke-width="2" stroke-linecap="butt"/><path d="M220.9785,162.40532v-27.02703h38.03804v27.02703z" data-paper-data="{&quot;index&quot;:null}" fill="#ff00c5" stroke="#0008ff" stroke-width="2" stroke-linecap="butt"/><path d="M254.01153,157.49131l-21.02102,0.30713l-3.003,3.37838l-2.002,-6.14251l29.02903,-5.22113l-30.03003,-4.29975l3.003,-7.67813z" data-paper-data="{&quot;index&quot;:null}" fill="#ff00c5" stroke="#0008ff" stroke-width="2" stroke-linecap="round"/><path d="M185.44296,214.95788l-9.00901,-15.01502l30.03003,-18.01802l-21.02102,3.003l19.51952,19.51952z" data-paper-data="{&quot;index&quot;:null}" fill="#ff00c5" stroke="#0008ff" stroke-width="2" stroke-linecap="round"/><path d="M296.55406,213.45637l-21.02102,-21.02102l6.00601,16.51652l13.51351,4.5045l-7.50751,-27.02703h25.52553" data-paper-data="{&quot;index&quot;:null}" fill="#ff00c5" stroke="#0008ff" stroke-width="2" stroke-linecap="round"/><path d="M290.54805,172.91584l16.51652,-9.00901l-6.00601,-7.50751l-3.003,22.52252" data-paper-data="{&quot;index&quot;:null}" fill="#ff00c5" stroke="#0008ff" stroke-width="2" stroke-linecap="round"/><path d="M185.44297,232.97589l-9.00901,16.51652l3.003,24.02402l-12.01201,-21.02102l4.5045,-37.53754l4.5045,13.51351l28.52853,-15.01502z" data-paper-data="{&quot;index&quot;:null}" fill="#ff00c5" stroke="#0008ff" stroke-width="2" stroke-linecap="round"/><g data-paper-data="{&quot;index&quot;:null}" fill="none" stroke="#0008ff" stroke-width="5" stroke-linecap="round"><path d="M227.02836,99l9.5625,-18"/><path d="M223.82733,82.65277l16.52707,13.40875"/></g><g data-paper-data="{&quot;index&quot;:null}" fill="none" stroke="#0008ff" stroke-width="5" stroke-linecap="round"><path d="M244.02836,96l9.5625,-18"/><path d="M257.3544,93.06152l-16.52708,-13.40875"/></g></g></g></svg>