<svg version="1.1" xmlns="http://www.w3.org/2000/svg" xmlns:xlink="http://www.w3.org/1999/xlink" width="255.39117" height="296.53303" viewBox="0,0,255.39117,296.53303"><g transform="translate(-113.05518,-31.14483)"><g data-paper-data="{&quot;isPaintingLayer&quot;:true}" fill-rule="nonzero" stroke-linejoin="miter" stroke-miterlimit="10" stroke-dasharray="" stroke-dashoffset="0" style="mix-blend-mode: normal"><path d="M129.8874,205.40742v-64.56457h15.01502v64.56457z" data-paper-data="{&quot;index&quot;:null}" fill="#000000" stroke="#ff0000" stroke-width="2" stroke-linecap="butt"/><path d="M300.56306,85.78279l64.56457,55.55555l-28.52852,-4.5045l-54.05406,-33.03303z" data-paper-data="{&quot;index&quot;:null}" fill="#000000" stroke="#ff0000" stroke-width="2" stroke-linecap="round"/><path d="M198.95647,112.31433l-54.05406,33.03303l-28.52852,4.50451l64.56456,-55.55556z" data-paper-data="{&quot;index&quot;:null}" fill="#000000" stroke="#ff0000" stroke-width="2" stroke-linecap="round"/><path d="M241.87584,106.80383l72.20077,-34.53454l-35.00644,70.57057l-35.00644,33.03303l-39.38224,-37.53754l-43.75804,-69.06907z" data-paper-data="{&quot;index&quot;:null}" fill="#000000" stroke="#ff0000" stroke-width="2" stroke-linecap="round"/><path d="M293.19837,254.63145l-23.3149,3.21585l-18.49112,-24.11886l-8.84358,-48.23772l-32.15848,45.82583l16.8832,30.55056l-21.70698,2.41188l-20.09905,-19.29509l0.80397,-17.68716l53.06149,-68.33677l21.70697,3.21585z" data-paper-data="{&quot;index&quot;:null}" fill="#000000" stroke="#ff0000" stroke-width="2" stroke-linecap="round"/><path d="M242.68038,313.75706l-50.98507,11.46176l31.43624,-17.77941l-30.65793,-55.73395l22.52829,12.24007l12.7265,-2.03697l26.62047,45.10522z" data-paper-data="{&quot;index&quot;:null}" fill="#000000" stroke="#ff0000" stroke-width="2" stroke-linecap="round"/><path d="M294.80628,310.10483h-52.25752l34.57037,-10.45151l-17.68717,-61.10111l19.29508,16.88321l12.86339,0.80396l16.07924,49.84565z" data-paper-data="{&quot;index&quot;:null}" fill="#000000" stroke="#ff0000" stroke-width="2" stroke-linecap="round"/><path d="M244.0015,107.80981l49.54955,-34.53453l-24.02402,70.57057l-24.02402,33.03304l-27.02702,-37.53754l-30.03003,-69.06907z" data-paper-data="{&quot;index&quot;:null}" fill="#000000" stroke="#ff0000" stroke-width="2" stroke-linecap="round"/><path d="M133.64115,191.89391c10.36571,0 18.76877,8.06693 18.76877,18.01801c0,9.95107 -8.40307,18.01802 -18.76877,18.01802c-10.3657,0 -18.76877,-8.06695 -18.76877,-18.01802c0,-9.95107 8.40307,-18.01801 18.76877,-18.01801z" data-paper-data="{&quot;index&quot;:null}" fill="#000000" stroke="#ff0000" stroke-width="2" stroke-linecap="butt"/><path d="M333.59612,199.89691v-64.56456h15.01501v64.56456z" data-paper-data="{&quot;index&quot;:null}" fill="#000000" stroke="#ff0000" stroke-width="2" stroke-linecap="butt"/><path d="M331.83936,190.3924c9.53645,0 17.26726,7.73082 17.26726,17.26727c0,9.53644 -7.73081,17.26726 -17.26726,17.26726c-9.53645,0 -17.26727,-7.73081 -17.26727,-17.26726c0,-9.53645 7.73082,-17.26727 17.26727,-17.26727z" data-paper-data="{&quot;index&quot;:null}" fill="#000000" stroke="#ff0000" stroke-width="2" stroke-linecap="butt"/><path d="M130.07353,190.29698l43.15568,-64.718l-2.58727,26.9075l76.41646,-114.9448l-12.06547,38.5145l49.54282,-36.93099l-96.36168,118.0045l32.16613,-15.6515l-43.90198,60.8841l-2.48144,-27.82211l-39.99628,60.849l-10.13742,-1.82921l38.41658,-58.9145z" data-paper-data="{&quot;index&quot;:null}" fill="#000000" stroke="#ff0000" stroke-width="2" stroke-linecap="round"/><path d="M221.47899,107.35475v-73.57357h45.04505v73.57357z" data-paper-data="{&quot;index&quot;:null}" fill="#000000" stroke="#ff0000" stroke-width="2" stroke-linecap="butt"/><path d="M245.50302,59.8037c-1.38071,0 -2.5,-1.11929 -2.5,-2.5c0,-1.38071 1.11929,-2.5 2.5,-2.5c1.38071,0 2.5,1.11929 2.5,2.5c0,1.38071 -1.11929,2.5 -2.5,2.5z" data-paper-data="{&quot;index&quot;:null}" fill="#ff0000" stroke="none" stroke-width="0.5" stroke-linecap="butt"/><path d="M236.494,61.3052c-1.38071,0 -2.5,-1.11929 -2.5,-2.5c0,-1.38071 1.11929,-2.5 2.5,-2.5c1.38071,0 2.5,1.11929 2.5,2.5c0,1.38071 -1.11929,2.5 -2.5,2.5z" data-paper-data="{&quot;index&quot;:null}" fill="#ff0000" stroke="none" stroke-width="0.5" stroke-linecap="butt"/><path d="M227.485,59.8037c-1.38071,0 -2.5,-1.11929 -2.5,-2.5c0,-1.38071 1.11929,-2.5 2.5,-2.5c1.38071,0 2.5,1.11929 2.5,2.5c0,1.38071 -1.11929,2.5 -2.5,2.5z" data-paper-data="{&quot;index&quot;:null}" fill="#ff0000" stroke="none" stroke-width="0.5" stroke-linecap="butt"/><path d="M247.00452,68.81271c-1.38071,0 -2.5,-1.11929 -2.5,-2.5c0,-1.38071 1.11929,-2.5 2.5,-2.5c1.38071,0 2.5,1.11929 2.5,2.5c0,1.38071 -1.11929,2.5 -2.5,2.5z" data-paper-data="{&quot;index&quot;:null}" fill="#ff0000" stroke="none" stroke-width="0.5" stroke-linecap="butt"/><path d="M234.99251,71.81571c-1.38071,0 -2.5,-1.11929 -2.5,-2.5c0,-1.38071 1.11929,-2.5 2.5,-2.5c1.38071,0 2.5,1.11929 2.5,2.5c0,1.38071 -1.11929,2.5 -2.5,2.5z" data-paper-data="{&quot;index&quot;:null}" fill="#ff0000" stroke="none" stroke-width="0.5" stroke-linecap="butt"/><path d="M225.9835,68.81271c-1.38071,0 -2.5,-1.11929 -2.5,-2.5c0,-1.38071 1.11929,-2.5 2.5,-2.5c1.38071,0 2.5,1.11929 2.5,2.5c0,1.38071 -1.11929,2.5 -2.5,2.5z" data-paper-data="{&quot;index&quot;:null}" fill="#ff0000" stroke="none" stroke-width="0.5" stroke-linecap="butt"/><path d="M220.9785,136.88328v-27.02703h38.03804v27.02703z" data-paper-data="{&quot;index&quot;:null}" fill="#000000" stroke="#000000" stroke-width="2" stroke-linecap="butt"/><path d="M254.01153,131.96927l-21.02102,0.30713l-3.003,3.37838l-2.002,-6.14251l29.02903,-5.22113l-30.03003,-4.29975l3.003,-7.67813z" data-paper-data="{&quot;index&quot;:null}" fill="none" stroke="#ff0000" stroke-width="2" stroke-linecap="round"/><path d="M185.44295,189.43584l-9.00901,-15.01502l30.03003,-18.01802l-21.02102,3.003l19.51952,19.51952z" data-paper-data="{&quot;index&quot;:null}" fill="none" stroke="#ff0000" stroke-width="2" stroke-linecap="round"/><path d="M296.55407,187.93433l-21.02102,-21.02102l6.00601,16.51652l13.51351,4.5045l-7.50751,-27.02703h25.52553" data-paper-data="{&quot;index&quot;:null}" fill="none" stroke="#ff0000" stroke-width="2" stroke-linecap="round"/><path d="M290.54806,147.3938l16.51652,-9.00901l-6.00601,-7.50751l-3.003,22.52252" data-paper-data="{&quot;index&quot;:null}" fill="none" stroke="#ff0000" stroke-width="2" stroke-linecap="round"/><path d="M185.44295,207.45385l-9.00901,16.51652l3.003,24.02402l-12.01201,-21.02102l4.5045,-37.53754l4.5045,13.51351l28.52853,-15.01502z" data-paper-data="{&quot;index&quot;:null}" fill="none" stroke="#ff0000" stroke-width="2" stroke-linecap="round"/></g></g></svg>